<mxfile host="app.diagrams.net" modified="2024-06-10T14:58:37.975Z" agent="Mozilla/5.0 (Windows NT 10.0; Win64; x64) AppleWebKit/537.36 (KHTML, like Gecko) Chrome/125.0.0.0 Safari/537.36" etag="S3L07ArXibJoqBtKoKeG" version="24.4.7" type="google">
  <diagram name="Página-1" id="FRl-HPCUsOGegwaNKyo3">
    <mxGraphModel grid="1" page="1" gridSize="10" guides="1" tooltips="1" connect="1" arrows="1" fold="1" pageScale="1" pageWidth="827" pageHeight="1169" math="0" shadow="0">
      <root>
        <mxCell id="0" />
        <mxCell id="1" parent="0" />
        <mxCell id="V4egGfP_zGuZwLftv9b--569" value="Administrador" style="swimlane;fontStyle=1;align=center;verticalAlign=top;childLayout=stackLayout;horizontal=1;startSize=25.384615384615383;horizontalStack=0;resizeParent=1;resizeParentMax=0;resizeLast=0;collapsible=0;marginBottom=0;" vertex="1" parent="1">
          <mxGeometry x="1033.5" y="580" width="631" height="150.0046153846154" as="geometry" />
        </mxCell>
        <mxCell id="V4egGfP_zGuZwLftv9b--570" style="line;strokeWidth=1;fillColor=none;align=left;verticalAlign=middle;spacingTop=-1;spacingLeft=3;spacingRight=3;rotatable=0;labelPosition=right;points=[];portConstraint=eastwest;strokeColor=inherit;" vertex="1" parent="V4egGfP_zGuZwLftv9b--569">
          <mxGeometry y="25.384615384615383" width="631" height="8" as="geometry" />
        </mxCell>
        <mxCell id="V4egGfP_zGuZwLftv9b--572" value="+ CrearDeposito(nombre: string, ubicacion: string, capacidad: int, distancia: double): void &#xa;+ CrearSeccion(nombre: string, capacidad: int, nombreDeposito: sting): void&#xa;+ AltaUsuario(nombre: sting, permiso: string): void&#xa;+ AltaProveedor(nombre: string): void&#xa;+ CrearCategoria(categoria: string, codigoProductos: List&lt;int&gt;): void &#xa;+ AumentarStock(nombreDeposito: string, stockComprado: int, codigoProducto: int): void&#xa;+ VentasEnDia(fecha: DateTime): List&lt;VentaTotal&gt;" style="text;strokeColor=none;fillColor=none;align=left;verticalAlign=top;spacingLeft=4;spacingRight=4;overflow=hidden;rotatable=0;points=[[0,0.5],[1,0.5]];portConstraint=eastwest;" vertex="1" parent="V4egGfP_zGuZwLftv9b--569">
          <mxGeometry y="33.38461538461539" width="631" height="116.62" as="geometry" />
        </mxCell>
        <mxCell id="V4egGfP_zGuZwLftv9b--591" value="Autenticacion" style="swimlane;fontStyle=1;align=center;verticalAlign=top;childLayout=stackLayout;horizontal=1;startSize=27.5;horizontalStack=0;resizeParent=1;resizeParentMax=0;resizeLast=0;collapsible=0;marginBottom=0;" vertex="1" parent="1">
          <mxGeometry x="-827" y="530" width="404" height="120" as="geometry" />
        </mxCell>
        <mxCell id="V4egGfP_zGuZwLftv9b--592" value="+ codigos: Dictionary&lt;string, string&gt;" style="text;strokeColor=none;fillColor=none;align=left;verticalAlign=top;spacingLeft=4;spacingRight=4;overflow=hidden;rotatable=0;points=[[0,0.5],[1,0.5]];portConstraint=eastwest;" vertex="1" parent="V4egGfP_zGuZwLftv9b--591">
          <mxGeometry y="27.5" width="404" height="28" as="geometry" />
        </mxCell>
        <mxCell id="V4egGfP_zGuZwLftv9b--593" style="line;strokeWidth=1;fillColor=none;align=left;verticalAlign=middle;spacingTop=-1;spacingLeft=3;spacingRight=3;rotatable=0;labelPosition=right;points=[];portConstraint=eastwest;strokeColor=inherit;" vertex="1" parent="V4egGfP_zGuZwLftv9b--591">
          <mxGeometry y="55.5" width="404" height="8" as="geometry" />
        </mxCell>
        <mxCell id="V4egGfP_zGuZwLftv9b--594" value="+ Autenticar(): void&#xa;+ GenerarPIN(): string" style="text;strokeColor=none;fillColor=none;align=left;verticalAlign=top;spacingLeft=4;spacingRight=4;overflow=hidden;rotatable=0;points=[[0,0.5],[1,0.5]];portConstraint=eastwest;" vertex="1" parent="V4egGfP_zGuZwLftv9b--591">
          <mxGeometry y="63.5" width="404" height="56.5" as="geometry" />
        </mxCell>
        <mxCell id="V4egGfP_zGuZwLftv9b--598" value="&lt;interface&gt; IDeposito" style="swimlane;fontStyle=1;align=center;verticalAlign=top;childLayout=stackLayout;horizontal=1;startSize=26;horizontalStack=0;resizeParent=1;resizeParentMax=0;resizeLast=0;collapsible=0;marginBottom=0;" vertex="1" parent="1">
          <mxGeometry x="1888" y="1419.13" width="331" height="100" as="geometry" />
        </mxCell>
        <mxCell id="gEs3-qZLryCv8rdm9ER4-4" value="&amp;nbsp;+ GetNombre: string&lt;div&gt;&amp;nbsp;+ GetSecciones: IEnumerable&lt;/div&gt;" style="text;html=1;align=left;verticalAlign=middle;resizable=0;points=[];autosize=1;strokeColor=none;fillColor=none;" vertex="1" parent="V4egGfP_zGuZwLftv9b--598">
          <mxGeometry y="26" width="331" height="40" as="geometry" />
        </mxCell>
        <mxCell id="V4egGfP_zGuZwLftv9b--599" style="line;strokeWidth=1;fillColor=none;align=left;verticalAlign=middle;spacingTop=-1;spacingLeft=3;spacingRight=3;rotatable=0;labelPosition=right;points=[];portConstraint=eastwest;strokeColor=inherit;" vertex="1" parent="V4egGfP_zGuZwLftv9b--598">
          <mxGeometry y="66" width="331" height="4" as="geometry" />
        </mxCell>
        <mxCell id="V4egGfP_zGuZwLftv9b--602" value=".+ CrearSeccion(nombre: string, capacidad: int): ISeccion" style="text;strokeColor=none;fillColor=none;align=left;verticalAlign=top;spacingLeft=4;spacingRight=4;overflow=hidden;rotatable=0;points=[[0,0.5],[1,0.5]];portConstraint=eastwest;" vertex="1" parent="V4egGfP_zGuZwLftv9b--598">
          <mxGeometry y="70" width="331" height="30" as="geometry" />
        </mxCell>
        <mxCell id="V4egGfP_zGuZwLftv9b--603" value="ContenedorDepositos" style="swimlane;fontStyle=1;align=center;verticalAlign=top;childLayout=stackLayout;horizontal=1;startSize=29.75;horizontalStack=0;resizeParent=1;resizeParentMax=0;resizeLast=0;collapsible=0;marginBottom=0;" vertex="1" parent="1">
          <mxGeometry x="1788" y="1160" width="550" height="120.25" as="geometry" />
        </mxCell>
        <mxCell id="V4egGfP_zGuZwLftv9b--605" value="- Depositos : List&lt;IDeposito&gt;&#xa;+ GetDepositos: IEnumerable&lt;IDeposito&gt;&#xa;" style="text;strokeColor=none;fillColor=none;align=left;verticalAlign=top;spacingLeft=4;spacingRight=4;overflow=hidden;rotatable=0;points=[[0,0.5],[1,0.5]];portConstraint=eastwest;" vertex="1" parent="V4egGfP_zGuZwLftv9b--603">
          <mxGeometry y="29.75" width="550" height="40.25" as="geometry" />
        </mxCell>
        <mxCell id="V4egGfP_zGuZwLftv9b--606" style="line;strokeWidth=1;fillColor=none;align=left;verticalAlign=middle;spacingTop=-1;spacingLeft=3;spacingRight=3;rotatable=0;labelPosition=right;points=[];portConstraint=eastwest;strokeColor=inherit;" vertex="1" parent="V4egGfP_zGuZwLftv9b--603">
          <mxGeometry y="70" width="550" height="8" as="geometry" />
        </mxCell>
        <mxCell id="V4egGfP_zGuZwLftv9b--607" value="+ AgregarDeposito(nombre: string, ubicacion: string, capacidad: int, distancia: double): Deposito&#xa;+ EliminarDepositos(): void&#xa;" style="text;strokeColor=none;fillColor=none;align=left;verticalAlign=top;spacingLeft=4;spacingRight=4;overflow=hidden;rotatable=0;points=[[0,0.5],[1,0.5]];portConstraint=eastwest;" vertex="1" parent="V4egGfP_zGuZwLftv9b--603">
          <mxGeometry y="78" width="550" height="42.25" as="geometry" />
        </mxCell>
        <mxCell id="V4egGfP_zGuZwLftv9b--632" value="ContenedorProveedores" style="swimlane;fontStyle=1;align=center;verticalAlign=top;childLayout=stackLayout;horizontal=1;startSize=29.75;horizontalStack=0;resizeParent=1;resizeParentMax=0;resizeLast=0;collapsible=0;marginBottom=0;" vertex="1" parent="1">
          <mxGeometry x="-121" y="616.5" width="312" height="108" as="geometry" />
        </mxCell>
        <mxCell id="V4egGfP_zGuZwLftv9b--633" value="- Proveedores : List&lt;Proveedor&gt;&#xa;+ IEnumerable &lt;Proveedor&gt; GetProveedores" style="text;strokeColor=none;fillColor=none;align=left;verticalAlign=top;spacingLeft=4;spacingRight=4;overflow=hidden;rotatable=0;points=[[0,0.5],[1,0.5]];portConstraint=eastwest;" vertex="1" parent="V4egGfP_zGuZwLftv9b--632">
          <mxGeometry y="29.75" width="312" height="40.25" as="geometry" />
        </mxCell>
        <mxCell id="V4egGfP_zGuZwLftv9b--635" style="line;strokeWidth=1;fillColor=none;align=left;verticalAlign=middle;spacingTop=-1;spacingLeft=3;spacingRight=3;rotatable=0;labelPosition=right;points=[];portConstraint=eastwest;strokeColor=inherit;" vertex="1" parent="V4egGfP_zGuZwLftv9b--632">
          <mxGeometry y="70" width="312" height="8" as="geometry" />
        </mxCell>
        <mxCell id="V4egGfP_zGuZwLftv9b--636" value="+ AltaProveedor(nombre : string) : Proveedor" style="text;strokeColor=none;fillColor=none;align=left;verticalAlign=top;spacingLeft=4;spacingRight=4;overflow=hidden;rotatable=0;points=[[0,0.5],[1,0.5]];portConstraint=eastwest;" vertex="1" parent="V4egGfP_zGuZwLftv9b--632">
          <mxGeometry y="78" width="312" height="30" as="geometry" />
        </mxCell>
        <mxCell id="V4egGfP_zGuZwLftv9b--637" value="ContenedorUsuarios" style="swimlane;fontStyle=1;align=center;verticalAlign=top;childLayout=stackLayout;horizontal=1;startSize=29.75;horizontalStack=0;resizeParent=1;resizeParentMax=0;resizeLast=0;collapsible=0;marginBottom=0;" vertex="1" parent="1">
          <mxGeometry x="1194" y="89" width="310" height="110.25" as="geometry" />
        </mxCell>
        <mxCell id="V4egGfP_zGuZwLftv9b--638" value="- Usuarios: List&lt;Usuario&gt;&#xa;+ GetUsuarios: List&lt;Usuario&gt;&#xa;" style="text;strokeColor=none;fillColor=none;align=left;verticalAlign=top;spacingLeft=4;spacingRight=4;overflow=hidden;rotatable=0;points=[[0,0.5],[1,0.5]];portConstraint=eastwest;" vertex="1" parent="V4egGfP_zGuZwLftv9b--637">
          <mxGeometry y="29.75" width="310" height="40.25" as="geometry" />
        </mxCell>
        <mxCell id="V4egGfP_zGuZwLftv9b--640" style="line;strokeWidth=1;fillColor=none;align=left;verticalAlign=middle;spacingTop=-1;spacingLeft=3;spacingRight=3;rotatable=0;labelPosition=right;points=[];portConstraint=eastwest;strokeColor=inherit;" vertex="1" parent="V4egGfP_zGuZwLftv9b--637">
          <mxGeometry y="70" width="310" height="8" as="geometry" />
        </mxCell>
        <mxCell id="V4egGfP_zGuZwLftv9b--641" value="+ AltaUsuario(nombre: string, permiso: string): Usuario&#xa;&#xa;" style="text;strokeColor=none;fillColor=none;align=left;verticalAlign=top;spacingLeft=4;spacingRight=4;overflow=hidden;rotatable=0;points=[[0,0.5],[1,0.5]];portConstraint=eastwest;" vertex="1" parent="V4egGfP_zGuZwLftv9b--637">
          <mxGeometry y="78" width="310" height="32.25" as="geometry" />
        </mxCell>
        <mxCell id="V4egGfP_zGuZwLftv9b--642" value="VentaTotal" style="swimlane;fontStyle=1;align=center;verticalAlign=top;childLayout=stackLayout;horizontal=1;startSize=26;horizontalStack=0;resizeParent=1;resizeParentMax=0;resizeLast=0;collapsible=0;marginBottom=0;" vertex="1" parent="1">
          <mxGeometry x="197" y="1349.67" width="630" height="170" as="geometry" />
        </mxCell>
        <mxCell id="V4egGfP_zGuZwLftv9b--644" value="- Fecha: DateTime&#xa;- VentasIndividuales: List&lt;VentaIndividual&gt;&#xa;+ GetFecha: DateTime&#xa;+ GetVentasIndividuales: IEnumerable&lt;VentaIndividual&gt;&#xa;" style="text;strokeColor=none;fillColor=none;align=left;verticalAlign=top;spacingLeft=4;spacingRight=4;overflow=hidden;rotatable=0;points=[[0,0.5],[1,0.5]];portConstraint=eastwest;" vertex="1" parent="V4egGfP_zGuZwLftv9b--642">
          <mxGeometry y="26" width="630" height="74" as="geometry" />
        </mxCell>
        <mxCell id="V4egGfP_zGuZwLftv9b--645" style="line;strokeWidth=1;fillColor=none;align=left;verticalAlign=middle;spacingTop=-1;spacingLeft=3;spacingRight=3;rotatable=0;labelPosition=right;points=[];portConstraint=eastwest;strokeColor=inherit;" vertex="1" parent="V4egGfP_zGuZwLftv9b--642">
          <mxGeometry y="100" width="630" height="8" as="geometry" />
        </mxCell>
        <mxCell id="V4egGfP_zGuZwLftv9b--646" value="+ AgregarVenta(codigoProducto: int, cantidad: int, nombreSeccion: string, nombreDeposito: string): VentaIndividual&#xa;+ RemoveVenta(ventaIndividual: VentaIndividual): void&#xa;+ DisminuirStockTotal(): void" style="text;strokeColor=none;fillColor=none;align=left;verticalAlign=top;spacingLeft=4;spacingRight=4;overflow=hidden;rotatable=0;points=[[0,0.5],[1,0.5]];portConstraint=eastwest;" vertex="1" parent="V4egGfP_zGuZwLftv9b--642">
          <mxGeometry y="108" width="630" height="62" as="geometry" />
        </mxCell>
        <mxCell id="V4egGfP_zGuZwLftv9b--647" value="ContenedorVentasPorFecha" style="swimlane;fontStyle=1;align=center;verticalAlign=top;childLayout=stackLayout;horizontal=1;startSize=32;horizontalStack=0;resizeParent=1;resizeParentMax=0;resizeLast=0;collapsible=0;marginBottom=0;" vertex="1" parent="1">
          <mxGeometry x="340" y="1136.45" width="350" height="104" as="geometry" />
        </mxCell>
        <mxCell id="V4egGfP_zGuZwLftv9b--648" value="- VentasPorFecha : Dictionary&lt;DateTime, List&lt;VentaTotal&gt;&gt;" style="text;strokeColor=none;fillColor=none;align=left;verticalAlign=top;spacingLeft=4;spacingRight=4;overflow=hidden;rotatable=0;points=[[0,0.5],[1,0.5]];portConstraint=eastwest;" vertex="1" parent="V4egGfP_zGuZwLftv9b--647">
          <mxGeometry y="32" width="350" height="32" as="geometry" />
        </mxCell>
        <mxCell id="V4egGfP_zGuZwLftv9b--649" style="line;strokeWidth=1;fillColor=none;align=left;verticalAlign=middle;spacingTop=-1;spacingLeft=3;spacingRight=3;rotatable=0;labelPosition=right;points=[];portConstraint=eastwest;strokeColor=inherit;" vertex="1" parent="V4egGfP_zGuZwLftv9b--647">
          <mxGeometry y="64" width="350" height="8" as="geometry" />
        </mxCell>
        <mxCell id="V4egGfP_zGuZwLftv9b--650" value="+ VentasEnDia(fecha : DateTime) : List&lt;VentaTotal&gt;" style="text;strokeColor=none;fillColor=none;align=left;verticalAlign=top;spacingLeft=4;spacingRight=4;overflow=hidden;rotatable=0;points=[[0,0.5],[1,0.5]];portConstraint=eastwest;" vertex="1" parent="V4egGfP_zGuZwLftv9b--647">
          <mxGeometry y="72" width="350" height="32" as="geometry" />
        </mxCell>
        <mxCell id="V4egGfP_zGuZwLftv9b--657" value="CreadorCategorias" style="swimlane;fontStyle=1;align=center;verticalAlign=top;childLayout=stackLayout;horizontal=1;startSize=29.2;horizontalStack=0;resizeParent=1;resizeParentMax=0;resizeLast=0;collapsible=0;marginBottom=0;" vertex="1" parent="1">
          <mxGeometry x="1883" y="640" width="370" height="66.2" as="geometry" />
        </mxCell>
        <mxCell id="V4egGfP_zGuZwLftv9b--658" style="line;strokeWidth=1;fillColor=none;align=left;verticalAlign=middle;spacingTop=-1;spacingLeft=3;spacingRight=3;rotatable=0;labelPosition=right;points=[];portConstraint=eastwest;strokeColor=inherit;" vertex="1" parent="V4egGfP_zGuZwLftv9b--657">
          <mxGeometry y="29.2" width="370" height="8" as="geometry" />
        </mxCell>
        <mxCell id="V4egGfP_zGuZwLftv9b--659" value="+ CrearCategoria(categoria : string, codigosProductos : List&lt;int&gt;)" style="text;strokeColor=none;fillColor=none;align=left;verticalAlign=top;spacingLeft=4;spacingRight=4;overflow=hidden;rotatable=0;points=[[0,0.5],[1,0.5]];portConstraint=eastwest;" vertex="1" parent="V4egGfP_zGuZwLftv9b--657">
          <mxGeometry y="37.2" width="370" height="29" as="geometry" />
        </mxCell>
        <mxCell id="V4egGfP_zGuZwLftv9b--660" value="Deposito" style="swimlane;fontStyle=1;align=center;verticalAlign=top;childLayout=stackLayout;horizontal=1;startSize=25.7;horizontalStack=0;resizeParent=1;resizeParentMax=0;resizeLast=0;collapsible=0;marginBottom=0;" vertex="1" parent="1">
          <mxGeometry x="1889" y="1606.13" width="330" height="190" as="geometry" />
        </mxCell>
        <mxCell id="V4egGfP_zGuZwLftv9b--661" value="- Nombre : string&#xa;- Ubicacion : string&#xa;- Capacidad : int&#xa;- Distancia : double&#xa;- ListaSecciones : IList&#xa;+ GetSecciones : IEnumerable&#xa;+ GetNombre : string&#xa;+ GetNombresSecciones : List&lt;string&gt;&#xa;" style="text;strokeColor=none;fillColor=none;align=left;verticalAlign=top;spacingLeft=4;spacingRight=4;overflow=hidden;rotatable=0;points=[[0,0.5],[1,0.5]];portConstraint=eastwest;" vertex="1" parent="V4egGfP_zGuZwLftv9b--660">
          <mxGeometry y="25.7" width="330" height="124.3" as="geometry" />
        </mxCell>
        <mxCell id="V4egGfP_zGuZwLftv9b--668" style="line;strokeWidth=1;fillColor=none;align=left;verticalAlign=middle;spacingTop=-1;spacingLeft=3;spacingRight=3;rotatable=0;labelPosition=right;points=[];portConstraint=eastwest;strokeColor=inherit;" vertex="1" parent="V4egGfP_zGuZwLftv9b--660">
          <mxGeometry y="150" width="330" height="8" as="geometry" />
        </mxCell>
        <mxCell id="V4egGfP_zGuZwLftv9b--669" value="+ CrearSeccion(nombre : string, capacidad : int) : ISeccion&#xa;" style="text;strokeColor=none;fillColor=none;align=left;verticalAlign=top;spacingLeft=4;spacingRight=4;overflow=hidden;rotatable=0;points=[[0,0.5],[1,0.5]];portConstraint=eastwest;" vertex="1" parent="V4egGfP_zGuZwLftv9b--660">
          <mxGeometry y="158" width="330" height="32" as="geometry" />
        </mxCell>
        <mxCell id="V4egGfP_zGuZwLftv9b--673" value="Extends" style="curved=1;startArrow=block;startSize=16;startFill=0;endArrow=none;entryX=0.49995666600633915;entryY=0;rounded=0;exitX=0.499;exitY=0.977;exitDx=0;exitDy=0;exitPerimeter=0;" edge="1" parent="1" source="ELCax2u4NC0bbe4ilLgf-8" target="V4egGfP_zGuZwLftv9b--569">
          <mxGeometry relative="1" as="geometry">
            <Array as="points" />
            <mxPoint x="1349" y="500" as="sourcePoint" />
          </mxGeometry>
        </mxCell>
        <mxCell id="ELCax2u4NC0bbe4ilLgf-5" value="Usuario" style="swimlane;fontStyle=1;align=center;verticalAlign=top;childLayout=stackLayout;horizontal=1;startSize=29.75;horizontalStack=0;resizeParent=1;resizeParentMax=0;resizeLast=0;collapsible=0;marginBottom=0;" vertex="1" parent="1">
          <mxGeometry x="1079" y="368" width="540" height="130.25" as="geometry" />
        </mxCell>
        <mxCell id="ELCax2u4NC0bbe4ilLgf-6" value="-  Nombre: string&#xa;+ GetNombre: string &#xa;&#xa;" style="text;strokeColor=none;fillColor=none;align=left;verticalAlign=top;spacingLeft=4;spacingRight=4;overflow=hidden;rotatable=0;points=[[0,0.5],[1,0.5]];portConstraint=eastwest;" vertex="1" parent="ELCax2u4NC0bbe4ilLgf-5">
          <mxGeometry y="29.75" width="540" height="40.25" as="geometry" />
        </mxCell>
        <mxCell id="ELCax2u4NC0bbe4ilLgf-7" style="line;strokeWidth=1;fillColor=none;align=left;verticalAlign=middle;spacingTop=-1;spacingLeft=3;spacingRight=3;rotatable=0;labelPosition=right;points=[];portConstraint=eastwest;strokeColor=inherit;" vertex="1" parent="ELCax2u4NC0bbe4ilLgf-5">
          <mxGeometry y="70" width="540" height="8" as="geometry" />
        </mxCell>
        <mxCell id="ELCax2u4NC0bbe4ilLgf-8" value="+ AltaProducto(nombre: string, precio: double, codigo: int, marca:string, categorias: List&lt;string&gt;, &#xa;                        nombreSeccion: string, nombreDeposito: string, stock: int): void&#xa;+ RealizarVenta(): void&#xa;" style="text;strokeColor=none;fillColor=none;align=left;verticalAlign=top;spacingLeft=4;spacingRight=4;overflow=hidden;rotatable=0;points=[[0,0.5],[1,0.5]];portConstraint=eastwest;" vertex="1" parent="ELCax2u4NC0bbe4ilLgf-5">
          <mxGeometry y="78" width="540" height="52.25" as="geometry" />
        </mxCell>
        <mxCell id="ELCax2u4NC0bbe4ilLgf-9" value="BuscadorDepositos" style="swimlane;fontStyle=1;align=center;verticalAlign=top;childLayout=stackLayout;horizontal=1;startSize=29.75;horizontalStack=0;resizeParent=1;resizeParentMax=0;resizeLast=0;collapsible=0;marginBottom=0;" vertex="1" parent="1">
          <mxGeometry x="1830" y="154.12" width="200" height="97.75" as="geometry" />
        </mxCell>
        <mxCell id="ELCax2u4NC0bbe4ilLgf-10" value="- NombreDeposito : string" style="text;strokeColor=none;fillColor=none;align=left;verticalAlign=top;spacingLeft=4;spacingRight=4;overflow=hidden;rotatable=0;points=[[0,0.5],[1,0.5]];portConstraint=eastwest;" vertex="1" parent="ELCax2u4NC0bbe4ilLgf-9">
          <mxGeometry y="29.75" width="200" height="30" as="geometry" />
        </mxCell>
        <mxCell id="ELCax2u4NC0bbe4ilLgf-11" style="line;strokeWidth=1;fillColor=none;align=left;verticalAlign=middle;spacingTop=-1;spacingLeft=3;spacingRight=3;rotatable=0;labelPosition=right;points=[];portConstraint=eastwest;strokeColor=inherit;" vertex="1" parent="ELCax2u4NC0bbe4ilLgf-9">
          <mxGeometry y="59.75" width="200" height="8" as="geometry" />
        </mxCell>
        <mxCell id="ELCax2u4NC0bbe4ilLgf-13" value="+ Buscar() : IDeposito" style="text;strokeColor=none;fillColor=none;align=left;verticalAlign=top;spacingLeft=4;spacingRight=4;overflow=hidden;rotatable=0;points=[[0,0.5],[1,0.5]];portConstraint=eastwest;" vertex="1" parent="ELCax2u4NC0bbe4ilLgf-9">
          <mxGeometry y="67.75" width="200" height="30" as="geometry" />
        </mxCell>
        <mxCell id="ELCax2u4NC0bbe4ilLgf-14" value="BuscadorSecciones" style="swimlane;fontStyle=1;align=center;verticalAlign=top;childLayout=stackLayout;horizontal=1;startSize=28.4;horizontalStack=0;resizeParent=1;resizeParentMax=0;resizeLast=0;collapsible=0;marginBottom=0;" vertex="1" parent="1">
          <mxGeometry x="2340" y="150" width="200" height="106" as="geometry" />
        </mxCell>
        <mxCell id="ELCax2u4NC0bbe4ilLgf-15" value="- NombreDeposito : string&#xa;- NombreSeccion : string&#xa;" style="text;strokeColor=none;fillColor=none;align=left;verticalAlign=top;spacingLeft=4;spacingRight=4;overflow=hidden;rotatable=0;points=[[0,0.5],[1,0.5]];portConstraint=eastwest;" vertex="1" parent="ELCax2u4NC0bbe4ilLgf-14">
          <mxGeometry y="28.4" width="200" height="41.6" as="geometry" />
        </mxCell>
        <mxCell id="ELCax2u4NC0bbe4ilLgf-17" style="line;strokeWidth=1;fillColor=none;align=left;verticalAlign=middle;spacingTop=-1;spacingLeft=3;spacingRight=3;rotatable=0;labelPosition=right;points=[];portConstraint=eastwest;strokeColor=inherit;" vertex="1" parent="ELCax2u4NC0bbe4ilLgf-14">
          <mxGeometry y="70" width="200" height="8" as="geometry" />
        </mxCell>
        <mxCell id="ELCax2u4NC0bbe4ilLgf-19" value="+ Buscar() : ISeccion" style="text;strokeColor=none;fillColor=none;align=left;verticalAlign=top;spacingLeft=4;spacingRight=4;overflow=hidden;rotatable=0;points=[[0,0.5],[1,0.5]];portConstraint=eastwest;" vertex="1" parent="ELCax2u4NC0bbe4ilLgf-14">
          <mxGeometry y="78" width="200" height="28" as="geometry" />
        </mxCell>
        <mxCell id="ELCax2u4NC0bbe4ilLgf-22" value="&lt;interface&gt; IBuscador&lt;T&gt;" style="swimlane;fontStyle=1;align=center;verticalAlign=top;childLayout=stackLayout;horizontal=1;startSize=29.75;horizontalStack=0;resizeParent=1;resizeParentMax=0;resizeLast=0;collapsible=0;marginBottom=0;" vertex="1" parent="1">
          <mxGeometry x="2090" y="310" width="190" height="67.75" as="geometry" />
        </mxCell>
        <mxCell id="ELCax2u4NC0bbe4ilLgf-23" value="+ Buscar() : T" style="text;strokeColor=none;fillColor=none;align=left;verticalAlign=top;spacingLeft=4;spacingRight=4;overflow=hidden;rotatable=0;points=[[0,0.5],[1,0.5]];portConstraint=eastwest;" vertex="1" parent="ELCax2u4NC0bbe4ilLgf-22">
          <mxGeometry y="29.75" width="190" height="30" as="geometry" />
        </mxCell>
        <mxCell id="ELCax2u4NC0bbe4ilLgf-24" style="line;strokeWidth=1;fillColor=none;align=left;verticalAlign=middle;spacingTop=-1;spacingLeft=3;spacingRight=3;rotatable=0;labelPosition=right;points=[];portConstraint=eastwest;strokeColor=inherit;" vertex="1" parent="ELCax2u4NC0bbe4ilLgf-22">
          <mxGeometry y="59.75" width="190" height="8" as="geometry" />
        </mxCell>
        <mxCell id="V4egGfP_zGuZwLftv9b--612" value="Seccion" style="swimlane;fontStyle=1;align=center;verticalAlign=top;childLayout=stackLayout;horizontal=1;startSize=29.2;horizontalStack=0;resizeParent=1;resizeParentMax=0;resizeLast=0;collapsible=0;marginBottom=0;" vertex="1" parent="1">
          <mxGeometry x="1060" y="1280" width="610" height="220" as="geometry" />
        </mxCell>
        <mxCell id="zbynbGas7J4wnV4V9AK0-7" value="- Nombre: string&#xa;- Capacidad: int&#xa;- ListaProductos: Dictionary&lt;IProducto, int&gt;&#xa;+ GetNombre: string&#xa;+ GetCapacidad: int&#xa;+ CantidadProductos: int&#xa;+ Productos: IEnumerable&lt;IProducto&gt;&#xa;&#xa;" style="text;strokeColor=none;fillColor=none;align=left;verticalAlign=top;spacingLeft=4;spacingRight=4;overflow=hidden;rotatable=0;points=[[0,0.5],[1,0.5]];portConstraint=eastwest;" vertex="1" parent="V4egGfP_zGuZwLftv9b--612">
          <mxGeometry y="29.2" width="610" height="110.8" as="geometry" />
        </mxCell>
        <mxCell id="V4egGfP_zGuZwLftv9b--613" style="line;strokeWidth=1;fillColor=none;align=left;verticalAlign=middle;spacingTop=-1;spacingLeft=3;spacingRight=3;rotatable=0;labelPosition=right;points=[];portConstraint=eastwest;strokeColor=inherit;" vertex="1" parent="V4egGfP_zGuZwLftv9b--612">
          <mxGeometry y="140" width="610" height="20" as="geometry" />
        </mxCell>
        <mxCell id="V4egGfP_zGuZwLftv9b--614" value="+ AltaProducto(nombre: string, precio: double, codigo: int, marca: string, categorias: List&lt;string&gt;, stock: int): void&#xa;+ ModificarStock(codigoProducto: int, stock: int): void&#xa;+ CantidadStock(codigoProducto: int): int&#xa;" style="text;strokeColor=none;fillColor=none;align=left;verticalAlign=top;spacingLeft=4;spacingRight=4;overflow=hidden;rotatable=0;points=[[0,0.5],[1,0.5]];portConstraint=eastwest;" vertex="1" parent="V4egGfP_zGuZwLftv9b--612">
          <mxGeometry y="160" width="610" height="60" as="geometry" />
        </mxCell>
        <mxCell id="ELCax2u4NC0bbe4ilLgf-31" value="&lt;interface&gt; IProducto" style="swimlane;fontStyle=1;align=center;verticalAlign=top;childLayout=stackLayout;horizontal=1;startSize=29.75;horizontalStack=0;resizeParent=1;resizeParentMax=0;resizeLast=0;collapsible=0;marginBottom=0;" vertex="1" parent="1">
          <mxGeometry x="1241" y="1049" width="250" height="120.25" as="geometry" />
        </mxCell>
        <mxCell id="ELCax2u4NC0bbe4ilLgf-32" value="+ GetCodigo: int&#xa;+ GetCategorias : IEnumerable" style="text;strokeColor=none;fillColor=none;align=left;verticalAlign=top;spacingLeft=4;spacingRight=4;overflow=hidden;rotatable=0;points=[[0,0.5],[1,0.5]];portConstraint=eastwest;" vertex="1" parent="ELCax2u4NC0bbe4ilLgf-31">
          <mxGeometry y="29.75" width="250" height="40.25" as="geometry" />
        </mxCell>
        <mxCell id="ELCax2u4NC0bbe4ilLgf-33" style="line;strokeWidth=1;fillColor=none;align=left;verticalAlign=middle;spacingTop=-1;spacingLeft=3;spacingRight=3;rotatable=0;labelPosition=right;points=[];portConstraint=eastwest;strokeColor=inherit;" vertex="1" parent="ELCax2u4NC0bbe4ilLgf-31">
          <mxGeometry y="70" width="250" height="8" as="geometry" />
        </mxCell>
        <mxCell id="ELCax2u4NC0bbe4ilLgf-34" value="+ AgregarCategoria(categoria: string): void&#xa;+ ExisteCategoria(categoria : string): bool&#xa;" style="text;strokeColor=none;fillColor=none;align=left;verticalAlign=top;spacingLeft=4;spacingRight=4;overflow=hidden;rotatable=0;points=[[0,0.5],[1,0.5]];portConstraint=eastwest;" vertex="1" parent="ELCax2u4NC0bbe4ilLgf-31">
          <mxGeometry y="78" width="250" height="42.25" as="geometry" />
        </mxCell>
        <mxCell id="ELCax2u4NC0bbe4ilLgf-35" value="Producto" style="swimlane;fontStyle=1;align=center;verticalAlign=top;childLayout=stackLayout;horizontal=1;startSize=29.75;horizontalStack=0;resizeParent=1;resizeParentMax=0;resizeLast=0;collapsible=0;marginBottom=0;" vertex="1" parent="1">
          <mxGeometry x="1242" y="765.13" width="250" height="190" as="geometry" />
        </mxCell>
        <mxCell id="ELCax2u4NC0bbe4ilLgf-36" value="- Nombre : string&#xa;- Precio : double&#xa;- Codigo : int&#xa;- Marca : string&#xa;- Categorias : List&lt;string&gt;&#xa;+ GetCodigo : int&#xa;+ GetCategorias : IEnumerable" style="text;strokeColor=none;fillColor=none;align=left;verticalAlign=top;spacingLeft=4;spacingRight=4;overflow=hidden;rotatable=0;points=[[0,0.5],[1,0.5]];portConstraint=eastwest;" vertex="1" parent="ELCax2u4NC0bbe4ilLgf-35">
          <mxGeometry y="29.75" width="250" height="110.25" as="geometry" />
        </mxCell>
        <mxCell id="ELCax2u4NC0bbe4ilLgf-37" style="line;strokeWidth=1;fillColor=none;align=left;verticalAlign=middle;spacingTop=-1;spacingLeft=3;spacingRight=3;rotatable=0;labelPosition=right;points=[];portConstraint=eastwest;strokeColor=inherit;" vertex="1" parent="ELCax2u4NC0bbe4ilLgf-35">
          <mxGeometry y="140" width="250" height="8" as="geometry" />
        </mxCell>
        <mxCell id="ELCax2u4NC0bbe4ilLgf-38" value="+ AgregarCategoria(categoria: string): void&#xa;+ ExisteCategoria(categoria : string): bool&#xa;" style="text;strokeColor=none;fillColor=none;align=left;verticalAlign=top;spacingLeft=4;spacingRight=4;overflow=hidden;rotatable=0;points=[[0,0.5],[1,0.5]];portConstraint=eastwest;" vertex="1" parent="ELCax2u4NC0bbe4ilLgf-35">
          <mxGeometry y="148" width="250" height="42" as="geometry" />
        </mxCell>
        <mxCell id="V4egGfP_zGuZwLftv9b--575" value="&#xa;" style="text;strokeColor=none;fillColor=none;align=left;verticalAlign=top;spacingLeft=4;spacingRight=4;overflow=hidden;rotatable=0;points=[[0,0.5],[1,0.5]];portConstraint=eastwest;" vertex="1" parent="1">
          <mxGeometry x="720" y="890.0046153846154" width="631" as="geometry" />
        </mxCell>
        <mxCell id="zbynbGas7J4wnV4V9AK0-10" value="&lt;interface&gt; ISeccion" style="swimlane;fontStyle=1;align=center;verticalAlign=top;childLayout=stackLayout;horizontal=1;startSize=29.2;horizontalStack=0;resizeParent=1;resizeParentMax=0;resizeLast=0;collapsible=0;marginBottom=0;" vertex="1" parent="1">
          <mxGeometry x="1150" y="1610" width="430" height="190" as="geometry" />
        </mxCell>
        <mxCell id="zbynbGas7J4wnV4V9AK0-11" value="+ GetNombre: string&#xa;+ GetCapacidad: int" style="text;strokeColor=none;fillColor=none;align=left;verticalAlign=top;spacingLeft=4;spacingRight=4;overflow=hidden;rotatable=0;points=[[0,0.5],[1,0.5]];portConstraint=eastwest;" vertex="1" parent="zbynbGas7J4wnV4V9AK0-10">
          <mxGeometry y="29.2" width="430" height="39.45" as="geometry" />
        </mxCell>
        <mxCell id="zbynbGas7J4wnV4V9AK0-12" style="line;strokeWidth=1;fillColor=none;align=left;verticalAlign=middle;spacingTop=-1;spacingLeft=3;spacingRight=3;rotatable=0;labelPosition=right;points=[];portConstraint=eastwest;strokeColor=inherit;" vertex="1" parent="zbynbGas7J4wnV4V9AK0-10">
          <mxGeometry y="68.65" width="430" height="21.35" as="geometry" />
        </mxCell>
        <mxCell id="zbynbGas7J4wnV4V9AK0-13" value="+ AltaProducto (nombre: string,&#xa;  precio: double, coidgo: int, marca : string, categoria: List&lt;string&gt;, stock: int)&#xa;+ ModificarStock(codigoProducto:int,stock:int): void&#xa;+ Productos: IEnumerable&lt;Producto&gt;&#xa;+ CantidadStock(codigoProducto: int): int&#xa;+ CantidadProductos: int" style="text;strokeColor=none;fillColor=none;align=left;verticalAlign=top;spacingLeft=4;spacingRight=4;overflow=hidden;rotatable=0;points=[[0,0.5],[1,0.5]];portConstraint=eastwest;" vertex="1" parent="zbynbGas7J4wnV4V9AK0-10">
          <mxGeometry y="90" width="430" height="100" as="geometry" />
        </mxCell>
        <mxCell id="gEs3-qZLryCv8rdm9ER4-5" value="VentaIndividual" style="swimlane;fontStyle=1;align=center;verticalAlign=top;childLayout=stackLayout;horizontal=1;startSize=26;horizontalStack=0;resizeParent=1;resizeParentMax=0;resizeLast=0;collapsible=0;marginBottom=0;" vertex="1" parent="1">
          <mxGeometry x="227" y="1621.82" width="570" height="180" as="geometry" />
        </mxCell>
        <mxCell id="gEs3-qZLryCv8rdm9ER4-6" value="- Producto: IProducto&#xa;- Cantidad: int&#xa;- Seccion: ISeccion&#xa;+ GetSeccion: ISeccion&#xa;+ GetProducto: IProducto&#xa;+ GetCantidad: int&#xa;" style="text;strokeColor=none;fillColor=none;align=left;verticalAlign=top;spacingLeft=4;spacingRight=4;overflow=hidden;rotatable=0;points=[[0,0.5],[1,0.5]];portConstraint=eastwest;" vertex="1" parent="gEs3-qZLryCv8rdm9ER4-5">
          <mxGeometry y="26" width="570" height="104" as="geometry" />
        </mxCell>
        <mxCell id="gEs3-qZLryCv8rdm9ER4-8" style="line;strokeWidth=1;fillColor=none;align=left;verticalAlign=middle;spacingTop=-1;spacingLeft=3;spacingRight=3;rotatable=0;labelPosition=right;points=[];portConstraint=eastwest;strokeColor=inherit;" vertex="1" parent="gEs3-qZLryCv8rdm9ER4-5">
          <mxGeometry y="130" width="570" height="8" as="geometry" />
        </mxCell>
        <mxCell id="gEs3-qZLryCv8rdm9ER4-9" value="+ VentaIndividual(codigoProducto: int, capacidad: int, nombreSeccion: string, nombreDeposito: string)&#xa;+ DisminuirStockIndividual(): void&#xa;" style="text;strokeColor=none;fillColor=none;align=left;verticalAlign=top;spacingLeft=4;spacingRight=4;overflow=hidden;rotatable=0;points=[[0,0.5],[1,0.5]];portConstraint=eastwest;" vertex="1" parent="gEs3-qZLryCv8rdm9ER4-5">
          <mxGeometry y="138" width="570" height="42" as="geometry" />
        </mxCell>
        <mxCell id="zbynbGas7J4wnV4V9AK0-14" value="InicioSesion" style="swimlane;fontStyle=1;align=center;verticalAlign=top;childLayout=stackLayout;horizontal=1;startSize=29.75;horizontalStack=0;resizeParent=1;resizeParentMax=0;resizeLast=0;collapsible=0;marginBottom=0;" vertex="1" parent="1">
          <mxGeometry x="-720" y="800.01" width="170" height="120.25" as="geometry" />
        </mxCell>
        <mxCell id="zbynbGas7J4wnV4V9AK0-15" value="- PIN_Usuario: string&#xa;- userTypes: List&lt;string&gt;" style="text;strokeColor=none;fillColor=none;align=left;verticalAlign=top;spacingLeft=4;spacingRight=4;overflow=hidden;rotatable=0;points=[[0,0.5],[1,0.5]];portConstraint=eastwest;" vertex="1" parent="zbynbGas7J4wnV4V9AK0-14">
          <mxGeometry y="29.75" width="170" height="40.25" as="geometry" />
        </mxCell>
        <mxCell id="zbynbGas7J4wnV4V9AK0-16" style="line;strokeWidth=1;fillColor=none;align=left;verticalAlign=middle;spacingTop=-1;spacingLeft=3;spacingRight=3;rotatable=0;labelPosition=right;points=[];portConstraint=eastwest;strokeColor=inherit;" vertex="1" parent="zbynbGas7J4wnV4V9AK0-14">
          <mxGeometry y="70" width="170" height="8" as="geometry" />
        </mxCell>
        <mxCell id="zbynbGas7J4wnV4V9AK0-17" value="+ Verificar(): bool&#xa;+ GeneracionPIN() : void" style="text;strokeColor=none;fillColor=none;align=left;verticalAlign=top;spacingLeft=4;spacingRight=4;overflow=hidden;rotatable=0;points=[[0,0.5],[1,0.5]];portConstraint=eastwest;" vertex="1" parent="zbynbGas7J4wnV4V9AK0-14">
          <mxGeometry y="78" width="170" height="42.25" as="geometry" />
        </mxCell>
        <mxCell id="ELCax2u4NC0bbe4ilLgf-40" value="Implements" style="curved=1;startArrow=block;startSize=16;startFill=0;endArrow=none;entryX=0.494;entryY=1.019;rounded=0;exitX=0.5;exitY=0;exitDx=0;exitDy=0;entryDx=0;entryDy=0;entryPerimeter=0;" edge="1" parent="1" source="ELCax2u4NC0bbe4ilLgf-31" target="ELCax2u4NC0bbe4ilLgf-38">
          <mxGeometry x="0.053" relative="1" as="geometry">
            <Array as="points" />
            <mxPoint x="1375" y="1049" as="sourcePoint" />
            <mxPoint x="1372.25" y="955.2140000000002" as="targetPoint" />
            <mxPoint as="offset" />
          </mxGeometry>
        </mxCell>
        <mxCell id="ELCax2u4NC0bbe4ilLgf-41" value="Implements" style="curved=1;startArrow=block;startSize=16;startFill=0;endArrow=none;entryX=0.498;entryY=1.023;rounded=0;exitX=0.5;exitY=0;exitDx=0;exitDy=0;entryDx=0;entryDy=0;entryPerimeter=0;" edge="1" parent="1" source="zbynbGas7J4wnV4V9AK0-10" target="V4egGfP_zGuZwLftv9b--614">
          <mxGeometry x="0.053" relative="1" as="geometry">
            <Array as="points" />
            <mxPoint x="1330" y="1597.87" as="sourcePoint" />
            <mxPoint x="1330" y="1504.87" as="targetPoint" />
            <mxPoint as="offset" />
          </mxGeometry>
        </mxCell>
        <mxCell id="ELCax2u4NC0bbe4ilLgf-42" value="Implements" style="curved=1;startArrow=block;startSize=16;startFill=0;endArrow=none;entryX=0.5;entryY=0;rounded=0;entryDx=0;entryDy=0;" edge="1" parent="1" target="V4egGfP_zGuZwLftv9b--660">
          <mxGeometry x="0.053" relative="1" as="geometry">
            <Array as="points" />
            <mxPoint x="2054" y="1520" as="sourcePoint" />
            <mxPoint x="1958.5" y="1540" as="targetPoint" />
            <mxPoint as="offset" />
          </mxGeometry>
        </mxCell>
        <mxCell id="ELCax2u4NC0bbe4ilLgf-43" value="Implements" style="curved=1;startArrow=block;startSize=16;startFill=0;endArrow=none;entryX=1;entryY=0.5;rounded=0;exitX=0.5;exitY=0;exitDx=0;exitDy=0;entryDx=0;entryDy=0;" edge="1" parent="1" source="ELCax2u4NC0bbe4ilLgf-22" target="ELCax2u4NC0bbe4ilLgf-10">
          <mxGeometry x="0.053" relative="1" as="geometry">
            <Array as="points" />
            <mxPoint x="1980" y="265.25" as="sourcePoint" />
            <mxPoint x="1980" y="348.25" as="targetPoint" />
            <mxPoint as="offset" />
          </mxGeometry>
        </mxCell>
        <mxCell id="gEs3-qZLryCv8rdm9ER4-10" value="Implements" style="curved=1;startArrow=block;startSize=16;startFill=0;endArrow=none;entryX=0;entryY=0.5;rounded=0;entryDx=0;entryDy=0;exitX=0.5;exitY=0;exitDx=0;exitDy=0;" edge="1" parent="1" source="ELCax2u4NC0bbe4ilLgf-22" target="ELCax2u4NC0bbe4ilLgf-15">
          <mxGeometry x="0.053" relative="1" as="geometry">
            <Array as="points" />
            <mxPoint x="2200" y="404.12" as="sourcePoint" />
            <mxPoint x="1940" y="269.12" as="targetPoint" />
            <mxPoint as="offset" />
          </mxGeometry>
        </mxCell>
        <mxCell id="gEs3-qZLryCv8rdm9ER4-11" value="Proveedor" style="swimlane;fontStyle=1;align=center;verticalAlign=top;childLayout=stackLayout;horizontal=1;startSize=29.75;horizontalStack=0;resizeParent=1;resizeParentMax=0;resizeLast=0;collapsible=0;marginBottom=0;" vertex="1" parent="1">
          <mxGeometry x="-160" y="917.75" width="390" height="108" as="geometry" />
        </mxCell>
        <mxCell id="gEs3-qZLryCv8rdm9ER4-12" value="- Nombre: string&#xa;+ GetNombre: string" style="text;strokeColor=none;fillColor=none;align=left;verticalAlign=top;spacingLeft=4;spacingRight=4;overflow=hidden;rotatable=0;points=[[0,0.5],[1,0.5]];portConstraint=eastwest;" vertex="1" parent="gEs3-qZLryCv8rdm9ER4-11">
          <mxGeometry y="29.75" width="390" height="40.25" as="geometry" />
        </mxCell>
        <mxCell id="gEs3-qZLryCv8rdm9ER4-13" style="line;strokeWidth=1;fillColor=none;align=left;verticalAlign=middle;spacingTop=-1;spacingLeft=3;spacingRight=3;rotatable=0;labelPosition=right;points=[];portConstraint=eastwest;strokeColor=inherit;" vertex="1" parent="gEs3-qZLryCv8rdm9ER4-11">
          <mxGeometry y="70" width="390" height="8" as="geometry" />
        </mxCell>
        <mxCell id="gEs3-qZLryCv8rdm9ER4-14" value="+ VisualizarStock(codigo: int): Dictionary&lt;string, Dictionary&lt;string, int&gt;&gt;" style="text;strokeColor=none;fillColor=none;align=left;verticalAlign=top;spacingLeft=4;spacingRight=4;overflow=hidden;rotatable=0;points=[[0,0.5],[1,0.5]];portConstraint=eastwest;" vertex="1" parent="gEs3-qZLryCv8rdm9ER4-11">
          <mxGeometry y="78" width="390" height="30" as="geometry" />
        </mxCell>
        <mxCell id="ELCax2u4NC0bbe4ilLgf-45" value="1..*" style="endArrow=open;html=1;endSize=12;startArrow=diamondThin;startSize=14;startFill=1;edgeStyle=orthogonalEdgeStyle;align=left;verticalAlign=bottom;rounded=0;entryX=0.5;entryY=0;entryDx=0;entryDy=0;exitX=0.499;exitY=1.003;exitDx=0;exitDy=0;exitPerimeter=0;" edge="1" parent="1">
          <mxGeometry x="0.8219" y="-25" relative="1" as="geometry">
            <mxPoint x="450.3699999999999" y="1519.856" as="sourcePoint" />
            <mxPoint x="451" y="1621.82" as="targetPoint" />
            <mxPoint as="offset" />
          </mxGeometry>
        </mxCell>
        <mxCell id="ELCax2u4NC0bbe4ilLgf-47" value="ventaInividual" style="text;html=1;align=center;verticalAlign=middle;whiteSpace=wrap;rounded=0;" vertex="1" parent="1">
          <mxGeometry x="347" y="1551.82" width="87" height="30.87" as="geometry" />
        </mxCell>
        <mxCell id="ELCax2u4NC0bbe4ilLgf-48" value="1..*" style="endArrow=open;html=1;endSize=12;startArrow=diamondThin;startSize=14;startFill=1;edgeStyle=orthogonalEdgeStyle;align=left;verticalAlign=bottom;rounded=0;entryX=0.5;entryY=0;entryDx=0;entryDy=0;" edge="1" parent="1" target="V4egGfP_zGuZwLftv9b--642">
          <mxGeometry x="0.8219" y="-25" relative="1" as="geometry">
            <mxPoint x="512" y="1241.82" as="sourcePoint" />
            <mxPoint x="512" y="1321.82" as="targetPoint" />
            <mxPoint as="offset" />
          </mxGeometry>
        </mxCell>
        <mxCell id="ELCax2u4NC0bbe4ilLgf-49" value="ventaTotal" style="text;html=1;align=center;verticalAlign=middle;whiteSpace=wrap;rounded=0;" vertex="1" parent="1">
          <mxGeometry x="512" y="1276.8300000000002" width="87" height="30.87" as="geometry" />
        </mxCell>
        <mxCell id="ELCax2u4NC0bbe4ilLgf-50" value="1..*" style="endArrow=open;html=1;endSize=12;startArrow=diamondThin;startSize=14;startFill=1;edgeStyle=orthogonalEdgeStyle;align=left;verticalAlign=bottom;rounded=0;entryX=0.5;entryY=0;entryDx=0;entryDy=0;" edge="1" parent="1" target="V4egGfP_zGuZwLftv9b--598">
          <mxGeometry x="0.8219" y="-25" relative="1" as="geometry">
            <mxPoint x="2053.5" y="1280" as="sourcePoint" />
            <mxPoint x="2053.5699999999997" y="1402.25" as="targetPoint" />
            <mxPoint as="offset" />
          </mxGeometry>
        </mxCell>
        <mxCell id="ELCax2u4NC0bbe4ilLgf-51" value="deposito" style="text;html=1;align=center;verticalAlign=middle;whiteSpace=wrap;rounded=0;" vertex="1" parent="1">
          <mxGeometry x="2054.5" y="1332" width="64" height="30.87" as="geometry" />
        </mxCell>
        <mxCell id="ELCax2u4NC0bbe4ilLgf-54" value="1..*" style="endArrow=open;html=1;endSize=12;startArrow=diamondThin;startSize=14;startFill=1;edgeStyle=orthogonalEdgeStyle;align=left;verticalAlign=bottom;rounded=0;entryX=0.5;entryY=0;entryDx=0;entryDy=0;" edge="1" parent="1">
          <mxGeometry x="0.8219" y="-25" relative="1" as="geometry">
            <mxPoint x="1296.57" y="199.25" as="sourcePoint" />
            <mxPoint x="1297" y="368" as="targetPoint" />
            <mxPoint as="offset" />
          </mxGeometry>
        </mxCell>
        <mxCell id="gEs3-qZLryCv8rdm9ER4-15" value="1..*" style="endArrow=open;html=1;endSize=12;startArrow=diamondThin;startSize=14;startFill=1;edgeStyle=orthogonalEdgeStyle;align=left;verticalAlign=bottom;rounded=0;entryX=0.383;entryY=-0.004;entryDx=0;entryDy=0;entryPerimeter=0;" edge="1" parent="1" target="gEs3-qZLryCv8rdm9ER4-11">
          <mxGeometry x="0.8219" y="-25" relative="1" as="geometry">
            <mxPoint x="-10.529999999999745" y="724.5" as="sourcePoint" />
            <mxPoint x="-11" y="915.25" as="targetPoint" />
            <mxPoint as="offset" />
          </mxGeometry>
        </mxCell>
        <mxCell id="ELCax2u4NC0bbe4ilLgf-55" value="usuario" style="text;html=1;align=center;verticalAlign=middle;whiteSpace=wrap;rounded=0;" vertex="1" parent="1">
          <mxGeometry x="1230" y="264.5" width="60" height="30.87" as="geometry" />
        </mxCell>
        <mxCell id="gEs3-qZLryCv8rdm9ER4-16" value="proveedor" style="text;html=1;align=center;verticalAlign=middle;whiteSpace=wrap;rounded=0;" vertex="1" parent="1">
          <mxGeometry x="-81" y="807.5" width="70" height="30.87" as="geometry" />
        </mxCell>
        <mxCell id="gEs3-qZLryCv8rdm9ER4-17" value="1..*" style="endArrow=open;html=1;endSize=12;startArrow=diamondThin;startSize=14;startFill=0;edgeStyle=orthogonalEdgeStyle;align=left;verticalAlign=bottom;rounded=0;exitX=0.5;exitY=0;exitDx=0;exitDy=0;" edge="1" parent="1" source="V4egGfP_zGuZwLftv9b--612">
          <mxGeometry x="0.6104" y="-15" relative="1" as="geometry">
            <mxPoint x="1364.58" y="1350" as="sourcePoint" />
            <mxPoint x="1364.58" y="1169" as="targetPoint" />
            <mxPoint y="-1" as="offset" />
          </mxGeometry>
        </mxCell>
        <mxCell id="ELCax2u4NC0bbe4ilLgf-57" value="producto" style="text;html=1;align=center;verticalAlign=middle;whiteSpace=wrap;rounded=0;" vertex="1" parent="1">
          <mxGeometry x="1370" y="1210" width="60" height="30.87" as="geometry" />
        </mxCell>
        <mxCell id="gEs3-qZLryCv8rdm9ER4-19" value="seccion" style="text;html=1;align=center;verticalAlign=middle;whiteSpace=wrap;rounded=0;" vertex="1" parent="1">
          <mxGeometry x="1700" y="1680.7" width="60" height="30.87" as="geometry" />
        </mxCell>
        <mxCell id="gEs3-qZLryCv8rdm9ER4-20" value="1..*" style="endArrow=open;html=1;endSize=12;startArrow=diamondThin;startSize=14;startFill=1;edgeStyle=orthogonalEdgeStyle;align=left;verticalAlign=bottom;rounded=0;exitX=-0.008;exitY=0.982;exitDx=0;exitDy=0;exitPerimeter=0;entryX=1.002;entryY=0.045;entryDx=0;entryDy=0;entryPerimeter=0;" edge="1" parent="1" target="zbynbGas7J4wnV4V9AK0-13">
          <mxGeometry x="0.9454" y="-4" relative="1" as="geometry">
            <mxPoint x="1888.0000000000002" y="1704.4925999999996" as="sourcePoint" />
            <mxPoint x="1582" y="1704" as="targetPoint" />
            <mxPoint as="offset" />
            <Array as="points" />
          </mxGeometry>
        </mxCell>
        <mxCell id="gEs3-qZLryCv8rdm9ER4-21" value="" style="endArrow=open;endFill=1;endSize=12;html=1;rounded=0;exitX=-0.002;exitY=0.105;exitDx=0;exitDy=0;exitPerimeter=0;" edge="1" parent="1" source="V4egGfP_zGuZwLftv9b--660">
          <mxGeometry width="160" relative="1" as="geometry">
            <mxPoint x="1873" y="1625.26" as="sourcePoint" />
            <mxPoint x="1660" y="1500" as="targetPoint" />
            <Array as="points">
              <mxPoint x="1780" y="1625" />
              <mxPoint x="1660" y="1625" />
              <mxPoint x="1660" y="1560" />
            </Array>
          </mxGeometry>
        </mxCell>
        <mxCell id="ELCax2u4NC0bbe4ilLgf-58" value="" style="endArrow=open;endFill=1;endSize=12;html=1;rounded=0;exitX=-0.004;exitY=0.705;exitDx=0;exitDy=0;exitPerimeter=0;entryX=0.004;entryY=0.617;entryDx=0;entryDy=0;entryPerimeter=0;" edge="1" parent="1" source="zbynbGas7J4wnV4V9AK0-7" target="ELCax2u4NC0bbe4ilLgf-36">
          <mxGeometry width="160" relative="1" as="geometry">
            <mxPoint x="1017" y="1386" as="sourcePoint" />
            <mxPoint x="1240" y="863" as="targetPoint" />
            <Array as="points">
              <mxPoint x="890" y="1387" />
              <mxPoint x="890" y="863" />
            </Array>
          </mxGeometry>
        </mxCell>
        <mxCell id="zbynbGas7J4wnV4V9AK0-23" value="" style="endArrow=open;endFill=1;endSize=12;html=1;rounded=0;entryX=0.5;entryY=0;entryDx=0;entryDy=0;exitX=0.482;exitY=1.145;exitDx=0;exitDy=0;exitPerimeter=0;" edge="1" parent="1" source="V4egGfP_zGuZwLftv9b--659" target="V4egGfP_zGuZwLftv9b--603">
          <mxGeometry width="160" relative="1" as="geometry">
            <mxPoint x="2207" y="1003.13" as="sourcePoint" />
            <mxPoint x="1990" y="897.13" as="targetPoint" />
          </mxGeometry>
        </mxCell>
        <mxCell id="gEs3-qZLryCv8rdm9ER4-22" value="Use" style="endArrow=open;endSize=12;dashed=1;html=1;rounded=0;exitX=0.313;exitY=0.976;exitDx=0;exitDy=0;exitPerimeter=0;entryX=1.002;entryY=0.427;entryDx=0;entryDy=0;entryPerimeter=0;" edge="1" parent="1" source="V4egGfP_zGuZwLftv9b--659" target="ELCax2u4NC0bbe4ilLgf-33">
          <mxGeometry width="160" relative="1" as="geometry">
            <mxPoint x="1680" y="910" as="sourcePoint" />
            <mxPoint x="1510" y="1110" as="targetPoint" />
            <Array as="points">
              <mxPoint x="2000" y="1122" />
            </Array>
          </mxGeometry>
        </mxCell>
        <mxCell id="zbynbGas7J4wnV4V9AK0-27" value="Use" style="endArrow=open;endSize=12;dashed=1;html=1;rounded=0;exitX=0.646;exitY=1.158;exitDx=0;exitDy=0;exitPerimeter=0;" edge="1" parent="1" source="V4egGfP_zGuZwLftv9b--659">
          <mxGeometry width="160" relative="1" as="geometry">
            <mxPoint x="2160" y="840" as="sourcePoint" />
            <mxPoint x="2219" y="1440" as="targetPoint" />
            <Array as="points">
              <mxPoint x="2120" y="1120" />
              <mxPoint x="2400" y="1120" />
              <mxPoint x="2400" y="1440" />
              <mxPoint x="2310" y="1440" />
            </Array>
          </mxGeometry>
        </mxCell>
        <mxCell id="zbynbGas7J4wnV4V9AK0-28" value="Use" style="endArrow=open;endSize=12;dashed=1;html=1;rounded=0;exitX=0.798;exitY=0.998;exitDx=0;exitDy=0;exitPerimeter=0;entryX=0.496;entryY=1.009;entryDx=0;entryDy=0;entryPerimeter=0;" edge="1" parent="1" source="V4egGfP_zGuZwLftv9b--659" target="zbynbGas7J4wnV4V9AK0-13">
          <mxGeometry width="160" relative="1" as="geometry">
            <mxPoint x="1710" y="955.13" as="sourcePoint" />
            <mxPoint x="1870" y="955.13" as="targetPoint" />
            <Array as="points">
              <mxPoint x="2178" y="1080" />
              <mxPoint x="2460" y="1080" />
              <mxPoint x="2460" y="1880" />
              <mxPoint x="1363" y="1880" />
            </Array>
          </mxGeometry>
        </mxCell>
        <mxCell id="gEs3-qZLryCv8rdm9ER4-24" value="" style="endArrow=open;endFill=1;endSize=12;html=1;rounded=0;entryX=0.594;entryY=0.01;entryDx=0;entryDy=0;entryPerimeter=0;" edge="1" parent="1" target="ELCax2u4NC0bbe4ilLgf-5">
          <mxGeometry width="160" relative="1" as="geometry">
            <mxPoint x="1400" y="200" as="sourcePoint" />
            <mxPoint x="1520" y="330" as="targetPoint" />
          </mxGeometry>
        </mxCell>
        <mxCell id="ELCax2u4NC0bbe4ilLgf-62" value="" style="endArrow=open;endFill=1;endSize=12;html=1;rounded=0;" edge="1" parent="1">
          <mxGeometry width="160" relative="1" as="geometry">
            <mxPoint x="79" y="726.75" as="sourcePoint" />
            <mxPoint x="79" y="917.5" as="targetPoint" />
          </mxGeometry>
        </mxCell>
        <mxCell id="ELCax2u4NC0bbe4ilLgf-63" value="" style="endArrow=open;endFill=1;endSize=12;html=1;rounded=0;" edge="1" parent="1">
          <mxGeometry width="160" relative="1" as="geometry">
            <mxPoint x="577" y="1521.8799999999999" as="sourcePoint" />
            <mxPoint x="577" y="1621.82" as="targetPoint" />
          </mxGeometry>
        </mxCell>
        <mxCell id="gEs3-qZLryCv8rdm9ER4-25" value="Use" style="endArrow=open;endSize=12;dashed=1;html=1;rounded=0;exitX=1.003;exitY=0.186;exitDx=0;exitDy=0;exitPerimeter=0;" edge="1" parent="1" source="gEs3-qZLryCv8rdm9ER4-6">
          <mxGeometry width="160" relative="1" as="geometry">
            <mxPoint x="797" y="1663.3" as="sourcePoint" />
            <mxPoint x="1150" y="1667" as="targetPoint" />
          </mxGeometry>
        </mxCell>
        <mxCell id="gEs3-qZLryCv8rdm9ER4-26" value="1..*" style="endArrow=open;html=1;endSize=12;startArrow=diamondThin;startSize=14;startFill=1;edgeStyle=orthogonalEdgeStyle;align=left;verticalAlign=bottom;rounded=0;" edge="1" parent="1">
          <mxGeometry x="0.8219" y="-25" relative="1" as="geometry">
            <mxPoint x="797" y="1740" as="sourcePoint" />
            <mxPoint x="1150" y="1741" as="targetPoint" />
            <mxPoint as="offset" />
          </mxGeometry>
        </mxCell>
        <mxCell id="gEs3-qZLryCv8rdm9ER4-27" value="seccion" style="text;html=1;align=center;verticalAlign=middle;whiteSpace=wrap;rounded=0;" vertex="1" parent="1">
          <mxGeometry x="930" y="1711.57" width="87" height="30.87" as="geometry" />
        </mxCell>
        <mxCell id="--1vKV_r8_CkUxaKUunJ-1" value="" style="endArrow=open;endFill=1;endSize=12;html=1;rounded=0;entryX=1;entryY=0.5;entryDx=0;entryDy=0;exitX=0.46;exitY=0.995;exitDx=0;exitDy=0;exitPerimeter=0;" edge="1" parent="1" source="gEs3-qZLryCv8rdm9ER4-9" target="ELCax2u4NC0bbe4ilLgf-15">
          <mxGeometry width="160" relative="1" as="geometry">
            <mxPoint x="530" y="1850" as="sourcePoint" />
            <mxPoint x="2722" y="566" as="targetPoint" />
            <Array as="points">
              <mxPoint x="489" y="1920" />
              <mxPoint x="2570" y="1920" />
              <mxPoint x="2570" y="200" />
            </Array>
          </mxGeometry>
        </mxCell>
        <mxCell id="ELCax2u4NC0bbe4ilLgf-64" value="" style="endArrow=open;endFill=1;endSize=12;html=1;rounded=0;entryX=0.5;entryY=0;entryDx=0;entryDy=0;exitX=-0.002;exitY=0.115;exitDx=0;exitDy=0;exitPerimeter=0;" edge="1" parent="1" source="ELCax2u4NC0bbe4ilLgf-8" target="V4egGfP_zGuZwLftv9b--647">
          <mxGeometry width="160" relative="1" as="geometry">
            <mxPoint x="1079.0000000000002" y="383.67049999999995" as="sourcePoint" />
            <mxPoint x="1000.82" y="368" as="targetPoint" />
            <Array as="points">
              <mxPoint x="515" y="452" />
            </Array>
          </mxGeometry>
        </mxCell>
        <mxCell id="--1vKV_r8_CkUxaKUunJ-3" value="" style="endArrow=open;endFill=1;endSize=12;html=1;rounded=0;exitX=0;exitY=0;exitDx=0;exitDy=0;entryX=0.002;entryY=0.875;entryDx=0;entryDy=0;entryPerimeter=0;" edge="1" parent="1">
          <mxGeometry width="160" relative="1" as="geometry">
            <mxPoint x="1079.000000000001" y="390" as="sourcePoint" />
            <mxPoint x="198.25999999999976" y="1462.4199999999996" as="targetPoint" />
            <Array as="points">
              <mxPoint x="310" y="390" />
              <mxPoint x="310" y="1092" />
              <mxPoint x="80" y="1092" />
              <mxPoint x="80" y="1462" />
            </Array>
          </mxGeometry>
        </mxCell>
        <mxCell id="gEs3-qZLryCv8rdm9ER4-28" value="" style="endArrow=open;endFill=1;endSize=12;html=1;rounded=0;entryX=0.5;entryY=0;entryDx=0;entryDy=0;exitX=0.909;exitY=0.015;exitDx=0;exitDy=0;exitPerimeter=0;" edge="1" parent="1" target="ELCax2u4NC0bbe4ilLgf-14">
          <mxGeometry width="160" relative="1" as="geometry">
            <mxPoint x="1109.9999999999995" y="367.9737499999999" as="sourcePoint" />
            <mxPoint x="1900.1399999999999" y="148.02" as="targetPoint" />
            <Array as="points">
              <mxPoint x="1110.1399999999999" y="38.02" />
              <mxPoint x="1510.1399999999999" y="38.02" />
              <mxPoint x="1690.1399999999999" y="38.02" />
              <mxPoint x="2440" y="38" />
            </Array>
          </mxGeometry>
        </mxCell>
        <mxCell id="gEs3-qZLryCv8rdm9ER4-29" value="Use" style="endArrow=open;endSize=12;dashed=1;html=1;rounded=0;exitX=-0.005;exitY=0.748;exitDx=0;exitDy=0;exitPerimeter=0;" edge="1" parent="1">
          <mxGeometry width="160" relative="1" as="geometry">
            <mxPoint x="1076.3000000000002" y="482.84299999999996" as="sourcePoint" />
            <mxPoint x="1150" y="1622" as="targetPoint" />
            <Array as="points">
              <mxPoint x="910" y="483" />
              <mxPoint x="850" y="483" />
              <mxPoint x="850" y="610" />
              <mxPoint x="850" y="730" />
              <mxPoint x="850" y="1080" />
              <mxPoint x="850" y="1622" />
            </Array>
          </mxGeometry>
        </mxCell>
        <mxCell id="ELCax2u4NC0bbe4ilLgf-67" value="" style="endArrow=none;html=1;rounded=0;exitX=1;exitY=0.5;exitDx=0;exitDy=0;entryX=0.998;entryY=0.052;entryDx=0;entryDy=0;entryPerimeter=0;" edge="1" parent="1" source="V4egGfP_zGuZwLftv9b--638" target="V4egGfP_zGuZwLftv9b--572">
          <mxGeometry width="50" height="50" relative="1" as="geometry">
            <mxPoint x="1850" y="410" as="sourcePoint" />
            <mxPoint x="1900" y="360" as="targetPoint" />
            <Array as="points">
              <mxPoint x="1760" y="139" />
              <mxPoint x="1760" y="390" />
              <mxPoint x="1760" y="619" />
            </Array>
          </mxGeometry>
        </mxCell>
        <mxCell id="gEs3-qZLryCv8rdm9ER4-30" value="" style="endArrow=open;endFill=1;endSize=12;html=1;rounded=0;entryX=0.001;entryY=0.195;entryDx=0;entryDy=0;entryPerimeter=0;" edge="1" parent="1" target="V4egGfP_zGuZwLftv9b--607">
          <mxGeometry width="160" relative="1" as="geometry">
            <mxPoint x="1619" y="730" as="sourcePoint" />
            <mxPoint x="1824.5" y="700" as="targetPoint" />
            <Array as="points">
              <mxPoint x="1619" y="1246" />
            </Array>
          </mxGeometry>
        </mxCell>
        <mxCell id="gEs3-qZLryCv8rdm9ER4-31" value="" style="endArrow=open;endFill=1;endSize=12;html=1;rounded=0;entryX=0;entryY=0.5;entryDx=0;entryDy=0;exitX=1;exitY=0.5;exitDx=0;exitDy=0;" edge="1" parent="1" source="V4egGfP_zGuZwLftv9b--572" target="V4egGfP_zGuZwLftv9b--657">
          <mxGeometry width="160" relative="1" as="geometry">
            <mxPoint x="1664.5" y="696.37" as="sourcePoint" />
            <mxPoint x="1824.5" y="696.37" as="targetPoint" />
          </mxGeometry>
        </mxCell>
        <mxCell id="ELCax2u4NC0bbe4ilLgf-71" value="" style="endArrow=open;endFill=1;endSize=12;html=1;rounded=0;exitX=-0.004;exitY=0.794;exitDx=0;exitDy=0;exitPerimeter=0;entryX=0.75;entryY=0;entryDx=0;entryDy=0;" edge="1" parent="1" source="V4egGfP_zGuZwLftv9b--572" target="V4egGfP_zGuZwLftv9b--647">
          <mxGeometry width="160" relative="1" as="geometry">
            <mxPoint x="931.5" y="750" as="sourcePoint" />
            <mxPoint x="650" y="960" as="targetPoint" />
            <Array as="points">
              <mxPoint x="603" y="706" />
            </Array>
          </mxGeometry>
        </mxCell>
        <mxCell id="ELCax2u4NC0bbe4ilLgf-74" value="" style="endArrow=open;endFill=1;endSize=12;html=1;rounded=0;exitX=-0.004;exitY=0.794;exitDx=0;exitDy=0;exitPerimeter=0;" edge="1" parent="1">
          <mxGeometry width="160" relative="1" as="geometry">
            <mxPoint x="1033.5" y="645.13" as="sourcePoint" />
            <mxPoint x="190" y="645" as="targetPoint" />
            <Array as="points">
              <mxPoint x="605.5" y="645.13" />
            </Array>
          </mxGeometry>
        </mxCell>
        <mxCell id="gEs3-qZLryCv8rdm9ER4-32" value="" style="endArrow=open;endFill=1;endSize=12;html=1;rounded=0;entryX=0.062;entryY=1.02;entryDx=0;entryDy=0;entryPerimeter=0;exitX=1;exitY=0.335;exitDx=0;exitDy=0;exitPerimeter=0;" edge="1" parent="1" source="V4egGfP_zGuZwLftv9b--572" target="ELCax2u4NC0bbe4ilLgf-13">
          <mxGeometry width="160" relative="1" as="geometry">
            <mxPoint x="1664.5" y="650" as="sourcePoint" />
            <mxPoint x="1824.5" y="650" as="targetPoint" />
            <Array as="points">
              <mxPoint x="1840" y="652" />
            </Array>
          </mxGeometry>
        </mxCell>
        <mxCell id="gEs3-qZLryCv8rdm9ER4-33" value="Use" style="endArrow=open;endSize=12;dashed=1;html=1;rounded=0;entryX=1;entryY=0.924;entryDx=0;entryDy=0;entryPerimeter=0;exitX=1.004;exitY=0.661;exitDx=0;exitDy=0;exitPerimeter=0;" edge="1" parent="1" source="V4egGfP_zGuZwLftv9b--572" target="zbynbGas7J4wnV4V9AK0-11">
          <mxGeometry x="0.0951" y="-4" width="160" relative="1" as="geometry">
            <mxPoint x="1670" y="720" as="sourcePoint" />
            <mxPoint x="1830" y="724.5" as="targetPoint" />
            <Array as="points">
              <mxPoint x="1760" y="690" />
              <mxPoint x="1760" y="1676" />
            </Array>
            <mxPoint as="offset" />
          </mxGeometry>
        </mxCell>
        <mxCell id="--1vKV_r8_CkUxaKUunJ-5" value="Use" style="endArrow=open;endSize=12;dashed=1;html=1;rounded=0;exitX=1.006;exitY=0.95;exitDx=0;exitDy=0;exitPerimeter=0;entryX=-0.003;entryY=0.211;entryDx=0;entryDy=0;entryPerimeter=0;" edge="1" parent="1" source="V4egGfP_zGuZwLftv9b--572" target="V4egGfP_zGuZwLftv9b--598">
          <mxGeometry width="160" relative="1" as="geometry">
            <mxPoint x="1600" y="980" as="sourcePoint" />
            <mxPoint x="1886" y="1440" as="targetPoint" />
            <Array as="points">
              <mxPoint x="1720" y="724" />
              <mxPoint x="1720" y="1440" />
            </Array>
          </mxGeometry>
        </mxCell>
        <mxCell id="gEs3-qZLryCv8rdm9ER4-34" value="" style="endArrow=open;endFill=1;endSize=12;html=1;rounded=0;entryX=0.463;entryY=1.161;entryDx=0;entryDy=0;entryPerimeter=0;" edge="1" parent="1">
          <mxGeometry width="160" relative="1" as="geometry">
            <mxPoint x="-639" y="800" as="sourcePoint" />
            <mxPoint x="-639.9480000000001" y="654.0080000000003" as="targetPoint" />
          </mxGeometry>
        </mxCell>
        <mxCell id="gEs3-qZLryCv8rdm9ER4-35" value="" style="rounded=0;whiteSpace=wrap;html=1;" vertex="1" parent="1">
          <mxGeometry x="-430" y="840" width="120" height="60" as="geometry" />
        </mxCell>
        <mxCell id="gEs3-qZLryCv8rdm9ER4-36" value="&lt;b&gt;Program&lt;/b&gt;" style="text;html=1;align=center;verticalAlign=middle;whiteSpace=wrap;rounded=0;" vertex="1" parent="1">
          <mxGeometry x="-400" y="854.99" width="60" height="30" as="geometry" />
        </mxCell>
        <mxCell id="gEs3-qZLryCv8rdm9ER4-39" value="" style="endArrow=open;endFill=1;endSize=12;html=1;rounded=0;exitX=0;exitY=0.25;exitDx=0;exitDy=0;" edge="1" parent="1">
          <mxGeometry width="160" relative="1" as="geometry">
            <mxPoint x="-430" y="869.5" as="sourcePoint" />
            <mxPoint x="-550" y="869.5" as="targetPoint" />
          </mxGeometry>
        </mxCell>
        <mxCell id="ELCax2u4NC0bbe4ilLgf-75" value="" style="endArrow=classic;html=1;rounded=0;exitX=-0.005;exitY=0.149;exitDx=0;exitDy=0;exitPerimeter=0;" edge="1" parent="1" source="gEs3-qZLryCv8rdm9ER4-11">
          <mxGeometry width="50" height="50" relative="1" as="geometry">
            <mxPoint x="340" y="880" as="sourcePoint" />
            <mxPoint x="2341.0667317708335" y="1180" as="targetPoint" />
            <Array as="points">
              <mxPoint x="-270" y="934" />
              <mxPoint x="-270" y="-90" />
              <mxPoint x="2850" y="-90" />
              <mxPoint x="2850" y="1180" />
            </Array>
          </mxGeometry>
        </mxCell>
        <mxCell id="--1vKV_r8_CkUxaKUunJ-6" value="Use" style="endArrow=open;endSize=12;dashed=1;html=1;rounded=0;exitX=0.413;exitY=1.043;exitDx=0;exitDy=0;exitPerimeter=0;entryX=0.298;entryY=1.009;entryDx=0;entryDy=0;entryPerimeter=0;" edge="1" parent="1" source="gEs3-qZLryCv8rdm9ER4-14" target="zbynbGas7J4wnV4V9AK0-13">
          <mxGeometry width="160" relative="1" as="geometry">
            <mxPoint x="180" y="1230" as="sourcePoint" />
            <mxPoint x="340" y="1230" as="targetPoint" />
            <Array as="points">
              <mxPoint x="2" y="1880" />
              <mxPoint x="1277" y="1880" />
            </Array>
          </mxGeometry>
        </mxCell>
        <mxCell id="gEs3-qZLryCv8rdm9ER4-40" value="Use" style="endArrow=open;endSize=12;dashed=1;html=1;rounded=0;entryX=0.112;entryY=1.107;entryDx=0;entryDy=0;entryPerimeter=0;" edge="1" parent="1" target="V4egGfP_zGuZwLftv9b--602">
          <mxGeometry width="160" relative="1" as="geometry">
            <mxPoint x="150" y="1030" as="sourcePoint" />
            <mxPoint x="420" y="1060" as="targetPoint" />
            <Array as="points">
              <mxPoint x="150" y="1560" />
              <mxPoint x="440" y="1560" />
              <mxPoint x="1000" y="1560" />
              <mxPoint x="1240" y="1560" />
              <mxPoint x="1460" y="1560" />
              <mxPoint x="1690" y="1560" />
              <mxPoint x="1800" y="1560" />
              <mxPoint x="1925" y="1560" />
            </Array>
          </mxGeometry>
        </mxCell>
        <mxCell id="gEs3-qZLryCv8rdm9ER4-41" value="" style="endArrow=open;endFill=1;endSize=12;html=1;rounded=0;exitX=0.785;exitY=1.19;exitDx=0;exitDy=0;exitPerimeter=0;entryX=0.999;entryY=0.477;entryDx=0;entryDy=0;entryPerimeter=0;" edge="1" parent="1" source="ELCax2u4NC0bbe4ilLgf-19" target="V4egGfP_zGuZwLftv9b--606">
          <mxGeometry width="160" relative="1" as="geometry">
            <mxPoint x="2170" y="970" as="sourcePoint" />
            <mxPoint x="2510" y="1240" as="targetPoint" />
            <Array as="points">
              <mxPoint x="2500" y="940" />
              <mxPoint x="2500" y="1233" />
            </Array>
          </mxGeometry>
        </mxCell>
        <mxCell id="--1vKV_r8_CkUxaKUunJ-8" value="Use" style="endArrow=open;endSize=12;dashed=1;html=1;rounded=0;" edge="1" parent="1">
          <mxGeometry width="160" relative="1" as="geometry">
            <mxPoint x="2540" y="240" as="sourcePoint" />
            <mxPoint x="1450" y="1800" as="targetPoint" />
            <Array as="points">
              <mxPoint x="2620" y="240" />
              <mxPoint x="2620" y="2000" />
              <mxPoint x="1450" y="2000" />
            </Array>
          </mxGeometry>
        </mxCell>
        <mxCell id="gEs3-qZLryCv8rdm9ER4-42" value="" style="endArrow=open;endFill=1;endSize=12;html=1;rounded=0;exitX=0.182;exitY=1.004;exitDx=0;exitDy=0;exitPerimeter=0;entryX=0.135;entryY=0;entryDx=0;entryDy=0;entryPerimeter=0;" edge="1" parent="1" source="ELCax2u4NC0bbe4ilLgf-13" target="V4egGfP_zGuZwLftv9b--603">
          <mxGeometry width="160" relative="1" as="geometry">
            <mxPoint x="1870" y="290" as="sourcePoint" />
            <mxPoint x="1890" y="540" as="targetPoint" />
          </mxGeometry>
        </mxCell>
        <mxCell id="--1vKV_r8_CkUxaKUunJ-9" value="Use" style="endArrow=open;endSize=12;dashed=1;html=1;rounded=0;exitX=0.952;exitY=1.052;exitDx=0;exitDy=0;exitPerimeter=0;entryX=0.999;entryY=0.457;entryDx=0;entryDy=0;entryPerimeter=0;" edge="1" parent="1" source="ELCax2u4NC0bbe4ilLgf-19" target="V4egGfP_zGuZwLftv9b--599">
          <mxGeometry width="160" relative="1" as="geometry">
            <mxPoint x="2530" y="604.6666124131945" as="sourcePoint" />
            <mxPoint x="2220" y="1487" as="targetPoint" />
            <Array as="points">
              <mxPoint x="2530" y="1487" />
            </Array>
          </mxGeometry>
        </mxCell>
        <mxCell id="gEs3-qZLryCv8rdm9ER4-44" value="Use" style="endArrow=open;endSize=12;dashed=1;html=1;rounded=0;entryX=1;entryY=0.5;entryDx=0;entryDy=0;" edge="1" parent="1" target="V4egGfP_zGuZwLftv9b--598">
          <mxGeometry width="160" relative="1" as="geometry">
            <mxPoint x="2010" y="150" as="sourcePoint" />
            <mxPoint x="2060" y="30" as="targetPoint" />
            <Array as="points">
              <mxPoint x="2010" y="-40" />
              <mxPoint x="2400" y="-40" />
              <mxPoint x="2590" y="-40" />
              <mxPoint x="2690" y="-40" />
              <mxPoint x="2780" y="-40" />
              <mxPoint x="2780" y="670" />
              <mxPoint x="2780" y="1469" />
            </Array>
          </mxGeometry>
        </mxCell>
        <mxCell id="ELCax2u4NC0bbe4ilLgf-169" value="DepositoNoEncontradoExcepcion" style="swimlane;fontStyle=1;align=center;verticalAlign=top;childLayout=stackLayout;horizontal=1;startSize=29.2;horizontalStack=0;resizeParent=1;resizeParentMax=0;resizeLast=0;collapsible=0;marginBottom=0;" vertex="1" parent="1">
          <mxGeometry x="997" y="-397.2" width="373" height="37.2" as="geometry" />
        </mxCell>
        <mxCell id="ELCax2u4NC0bbe4ilLgf-170" style="line;strokeWidth=1;fillColor=none;align=left;verticalAlign=middle;spacingTop=-1;spacingLeft=3;spacingRight=3;rotatable=0;labelPosition=right;points=[];portConstraint=eastwest;strokeColor=inherit;" vertex="1" parent="ELCax2u4NC0bbe4ilLgf-169">
          <mxGeometry y="29.2" width="373" height="8" as="geometry" />
        </mxCell>
        <mxCell id="ELCax2u4NC0bbe4ilLgf-172" value="CapacidadInsuficienteExcepcion" style="swimlane;fontStyle=1;align=center;verticalAlign=top;childLayout=stackLayout;horizontal=1;startSize=29.2;horizontalStack=0;resizeParent=1;resizeParentMax=0;resizeLast=0;collapsible=0;marginBottom=0;" vertex="1" parent="1">
          <mxGeometry x="1110" y="-282.25" width="369" height="37.2" as="geometry" />
        </mxCell>
        <mxCell id="ELCax2u4NC0bbe4ilLgf-173" style="line;strokeWidth=1;fillColor=none;align=left;verticalAlign=middle;spacingTop=-1;spacingLeft=3;spacingRight=3;rotatable=0;labelPosition=right;points=[];portConstraint=eastwest;strokeColor=inherit;" vertex="1" parent="ELCax2u4NC0bbe4ilLgf-172">
          <mxGeometry y="29.2" width="369" height="8" as="geometry" />
        </mxCell>
        <mxCell id="ELCax2u4NC0bbe4ilLgf-175" value="StockInsuficienteExcepcion" style="swimlane;fontStyle=1;align=center;verticalAlign=top;childLayout=stackLayout;horizontal=1;startSize=29.2;horizontalStack=0;resizeParent=1;resizeParentMax=0;resizeLast=0;collapsible=0;marginBottom=0;" vertex="1" parent="1">
          <mxGeometry x="1555" y="-282.25" width="334" height="37.2" as="geometry" />
        </mxCell>
        <mxCell id="ELCax2u4NC0bbe4ilLgf-176" style="line;strokeWidth=1;fillColor=none;align=left;verticalAlign=middle;spacingTop=-1;spacingLeft=3;spacingRight=3;rotatable=0;labelPosition=right;points=[];portConstraint=eastwest;strokeColor=inherit;" vertex="1" parent="ELCax2u4NC0bbe4ilLgf-175">
          <mxGeometry y="29.2" width="334" height="8" as="geometry" />
        </mxCell>
        <mxCell id="ELCax2u4NC0bbe4ilLgf-184" value="ListaCodigosVaciaExcepcion" style="swimlane;fontStyle=1;align=center;verticalAlign=top;childLayout=stackLayout;horizontal=1;startSize=29.2;horizontalStack=0;resizeParent=1;resizeParentMax=0;resizeLast=0;collapsible=0;marginBottom=0;" vertex="1" parent="1">
          <mxGeometry x="1115" y="-710" width="337" height="37.2" as="geometry" />
        </mxCell>
        <mxCell id="ELCax2u4NC0bbe4ilLgf-185" style="line;strokeWidth=1;fillColor=none;align=left;verticalAlign=middle;spacingTop=-1;spacingLeft=3;spacingRight=3;rotatable=0;labelPosition=right;points=[];portConstraint=eastwest;strokeColor=inherit;" vertex="1" parent="ELCax2u4NC0bbe4ilLgf-184">
          <mxGeometry y="29.2" width="337" height="8" as="geometry" />
        </mxCell>
        <mxCell id="ELCax2u4NC0bbe4ilLgf-187" value="CategoriaInvalidaExcepcion" style="swimlane;fontStyle=1;align=center;verticalAlign=top;childLayout=stackLayout;horizontal=1;startSize=29.2;horizontalStack=0;resizeParent=1;resizeParentMax=0;resizeLast=0;collapsible=0;marginBottom=0;" vertex="1" parent="1">
          <mxGeometry x="1504" y="-710" width="336" height="37.2" as="geometry" />
        </mxCell>
        <mxCell id="ELCax2u4NC0bbe4ilLgf-188" style="line;strokeWidth=1;fillColor=none;align=left;verticalAlign=middle;spacingTop=-1;spacingLeft=3;spacingRight=3;rotatable=0;labelPosition=right;points=[];portConstraint=eastwest;strokeColor=inherit;" vertex="1" parent="ELCax2u4NC0bbe4ilLgf-187">
          <mxGeometry y="29.2" width="336" height="8" as="geometry" />
        </mxCell>
        <mxCell id="ELCax2u4NC0bbe4ilLgf-193" value="Exception" style="swimlane;fontStyle=1;align=center;verticalAlign=top;childLayout=stackLayout;horizontal=1;startSize=25;horizontalStack=0;resizeParent=1;resizeParentMax=0;resizeLast=0;collapsible=0;marginBottom=0;" vertex="1" parent="1">
          <mxGeometry x="1455" y="-510" width="105" height="38" as="geometry" />
        </mxCell>
        <mxCell id="ELCax2u4NC0bbe4ilLgf-194" style="line;strokeWidth=1;fillColor=none;align=left;verticalAlign=middle;spacingTop=-1;spacingLeft=3;spacingRight=3;rotatable=0;labelPosition=right;points=[];portConstraint=eastwest;strokeColor=inherit;" vertex="1" parent="ELCax2u4NC0bbe4ilLgf-193">
          <mxGeometry y="25" width="105" height="13" as="geometry" />
        </mxCell>
        <mxCell id="ELCax2u4NC0bbe4ilLgf-197" value="" style="curved=1;startArrow=block;startSize=16;startFill=0;endArrow=none;exitX=0.5;exitY=1;entryX=0.4985848615269461;entryY=0;rounded=0;exitDx=0;exitDy=0;" edge="1" parent="1" source="ELCax2u4NC0bbe4ilLgf-193">
          <mxGeometry relative="1" as="geometry">
            <Array as="points" />
            <mxPoint x="1525" y="-438.01" as="sourcePoint" />
            <mxPoint x="1717.02734375" y="-282.25" as="targetPoint" />
          </mxGeometry>
        </mxCell>
        <mxCell id="ELCax2u4NC0bbe4ilLgf-202" value="" style="curved=1;startArrow=block;startSize=16;startFill=0;endArrow=none;exitX=0.5;exitY=0;entryX=0.502;entryY=1.074;rounded=0;exitDx=0;exitDy=0;entryDx=0;entryDy=0;entryPerimeter=0;" edge="1" parent="1" source="ELCax2u4NC0bbe4ilLgf-193">
          <mxGeometry relative="1" as="geometry">
            <Array as="points" />
            <mxPoint x="1785" y="-623.75" as="sourcePoint" />
            <mxPoint x="1670.6719999999996" y="-671.6539999999998" as="targetPoint" />
          </mxGeometry>
        </mxCell>
        <mxCell id="ELCax2u4NC0bbe4ilLgf-203" value="" style="curved=1;startArrow=block;startSize=16;startFill=0;endArrow=none;exitX=1;exitY=0.5;rounded=0;exitDx=0;exitDy=0;entryX=0;entryY=0.5;entryDx=0;entryDy=0;" edge="1" parent="1" source="ELCax2u4NC0bbe4ilLgf-193" target="wH1AgLoXfQPMmCpiyfL2-10">
          <mxGeometry relative="1" as="geometry">
            <Array as="points" />
            <mxPoint x="1915" y="-490" as="sourcePoint" />
            <mxPoint x="1840" y="-457" as="targetPoint" />
          </mxGeometry>
        </mxCell>
        <mxCell id="ELCax2u4NC0bbe4ilLgf-204" value="" style="curved=1;startArrow=block;startSize=16;startFill=0;endArrow=none;entryX=0.501;entryY=1.104;rounded=0;entryDx=0;entryDy=0;entryPerimeter=0;exitX=0.5;exitY=0;exitDx=0;exitDy=0;" edge="1" parent="1" source="ELCax2u4NC0bbe4ilLgf-193">
          <mxGeometry relative="1" as="geometry">
            <Array as="points" />
            <mxPoint x="1495" y="-480" as="sourcePoint" />
            <mxPoint x="1283.8370000000004" y="-670.7839999999999" as="targetPoint" />
          </mxGeometry>
        </mxCell>
        <mxCell id="wH1AgLoXfQPMmCpiyfL2-2" value="" style="curved=1;startArrow=block;startSize=16;startFill=0;endArrow=none;rounded=0;exitX=0.5;exitY=1;exitDx=0;exitDy=0;" edge="1" parent="1" source="ELCax2u4NC0bbe4ilLgf-193">
          <mxGeometry relative="1" as="geometry">
            <Array as="points" />
            <mxPoint x="1475" y="-440" as="sourcePoint" />
            <mxPoint x="1295" y="-282.25" as="targetPoint" />
          </mxGeometry>
        </mxCell>
        <mxCell id="wH1AgLoXfQPMmCpiyfL2-4" value="" style="curved=1;startArrow=block;startSize=16;startFill=0;endArrow=none;rounded=0;entryX=1;entryY=0.5;entryDx=0;entryDy=0;exitX=0.25;exitY=1;exitDx=0;exitDy=0;" edge="1" parent="1" source="ELCax2u4NC0bbe4ilLgf-193" target="ELCax2u4NC0bbe4ilLgf-169">
          <mxGeometry relative="1" as="geometry">
            <Array as="points" />
            <mxPoint x="1440" y="-430" as="sourcePoint" />
            <mxPoint x="1328" y="-455.32000000000005" as="targetPoint" />
          </mxGeometry>
        </mxCell>
        <mxCell id="wH1AgLoXfQPMmCpiyfL2-10" value="FechaInvalidaExcepcion" style="swimlane;fontStyle=1;align=center;verticalAlign=top;childLayout=stackLayout;horizontal=1;startSize=29.2;horizontalStack=0;resizeParent=1;resizeParentMax=0;resizeLast=0;collapsible=0;marginBottom=0;" vertex="1" parent="1">
          <mxGeometry x="1900" y="-476.01" width="425" height="37.2" as="geometry" />
        </mxCell>
        <mxCell id="wH1AgLoXfQPMmCpiyfL2-11" style="line;strokeWidth=1;fillColor=none;align=left;verticalAlign=middle;spacingTop=-1;spacingLeft=3;spacingRight=3;rotatable=0;labelPosition=right;points=[];portConstraint=eastwest;strokeColor=inherit;" vertex="1" parent="wH1AgLoXfQPMmCpiyfL2-10">
          <mxGeometry y="29.2" width="425" height="8" as="geometry" />
        </mxCell>
        <mxCell id="wH1AgLoXfQPMmCpiyfL2-12" value="" style="endArrow=open;endFill=1;endSize=12;html=1;rounded=0;exitX=-0.004;exitY=0.057;exitDx=0;exitDy=0;exitPerimeter=0;entryX=0;entryY=0.5;entryDx=0;entryDy=0;" edge="1" parent="1" source="V4egGfP_zGuZwLftv9b--572" target="ELCax2u4NC0bbe4ilLgf-172">
          <mxGeometry width="160" relative="1" as="geometry">
            <mxPoint x="680" y="830" as="sourcePoint" />
            <mxPoint x="740" y="620" as="targetPoint" />
            <Array as="points">
              <mxPoint x="800" y="620" />
              <mxPoint x="800" y="160" />
              <mxPoint x="800" y="-264" />
            </Array>
          </mxGeometry>
        </mxCell>
        <mxCell id="ELCax2u4NC0bbe4ilLgf-205" value="" style="endArrow=classic;html=1;rounded=0;exitX=1;exitY=0.25;exitDx=0;exitDy=0;entryX=0.5;entryY=0;entryDx=0;entryDy=0;" edge="1" parent="1" source="V4egGfP_zGuZwLftv9b--657" target="ELCax2u4NC0bbe4ilLgf-187">
          <mxGeometry width="50" height="50" relative="1" as="geometry">
            <mxPoint x="2170" y="820" as="sourcePoint" />
            <mxPoint x="2220" y="770" as="targetPoint" />
            <Array as="points">
              <mxPoint x="3080" y="657" />
              <mxPoint x="3080" y="-770" />
              <mxPoint x="2380" y="-770" />
              <mxPoint x="1672" y="-770" />
            </Array>
          </mxGeometry>
        </mxCell>
        <mxCell id="ELCax2u4NC0bbe4ilLgf-206" value="" style="endArrow=classic;html=1;rounded=0;exitX=1;exitY=0.25;exitDx=0;exitDy=0;entryX=0.5;entryY=0;entryDx=0;entryDy=0;" edge="1" parent="1" target="ELCax2u4NC0bbe4ilLgf-184">
          <mxGeometry width="50" height="50" relative="1" as="geometry">
            <mxPoint x="2254" y="687" as="sourcePoint" />
            <mxPoint x="1673" y="-680" as="targetPoint" />
            <Array as="points">
              <mxPoint x="3170" y="687" />
              <mxPoint x="3170" y="-810" />
              <mxPoint x="2240" y="-810" />
              <mxPoint x="1284" y="-810" />
            </Array>
          </mxGeometry>
        </mxCell>
        <mxCell id="wH1AgLoXfQPMmCpiyfL2-13" value="" style="endArrow=open;endFill=1;endSize=12;html=1;rounded=0;exitX=-0.001;exitY=0.597;exitDx=0;exitDy=0;exitPerimeter=0;entryX=0;entryY=0.5;entryDx=0;entryDy=0;" edge="1" parent="1" source="V4egGfP_zGuZwLftv9b--572" target="ELCax2u4NC0bbe4ilLgf-169">
          <mxGeometry width="160" relative="1" as="geometry">
            <mxPoint x="940" y="690" as="sourcePoint" />
            <mxPoint x="950" y="-460" as="targetPoint" />
            <Array as="points">
              <mxPoint x="910" y="683" />
              <mxPoint x="910" />
              <mxPoint x="910" y="-380" />
            </Array>
          </mxGeometry>
        </mxCell>
        <mxCell id="wH1AgLoXfQPMmCpiyfL2-14" value="" style="endArrow=open;endFill=1;endSize=12;html=1;rounded=0;entryX=0.551;entryY=0.756;entryDx=0;entryDy=0;entryPerimeter=0;" edge="1" parent="1" target="ELCax2u4NC0bbe4ilLgf-176">
          <mxGeometry width="160" relative="1" as="geometry">
            <mxPoint x="1670" y="1400" as="sourcePoint" />
            <mxPoint x="1830" y="1400" as="targetPoint" />
            <Array as="points">
              <mxPoint x="1740" y="1400" />
            </Array>
          </mxGeometry>
        </mxCell>
        <mxCell id="ELCax2u4NC0bbe4ilLgf-207" value="" style="endArrow=classic;html=1;rounded=0;exitX=0;exitY=0.5;exitDx=0;exitDy=0;entryX=1;entryY=0.5;entryDx=0;entryDy=0;" edge="1" parent="1" source="V4egGfP_zGuZwLftv9b--644" target="wH1AgLoXfQPMmCpiyfL2-10">
          <mxGeometry width="50" height="50" relative="1" as="geometry">
            <mxPoint x="370" y="1400" as="sourcePoint" />
            <mxPoint x="420" y="1350" as="targetPoint" />
            <Array as="points">
              <mxPoint x="-910" y="1413" />
              <mxPoint x="-910" y="-920" />
              <mxPoint x="2340" y="-920" />
              <mxPoint x="2400" y="-920" />
              <mxPoint x="2400" y="-457" />
            </Array>
          </mxGeometry>
        </mxCell>
        <mxCell id="ELCax2u4NC0bbe4ilLgf-208" value="VentaIndividualNoEncontradaExcepcion" style="swimlane;fontStyle=1;align=center;verticalAlign=top;childLayout=stackLayout;horizontal=1;startSize=29.2;horizontalStack=0;resizeParent=1;resizeParentMax=0;resizeLast=0;collapsible=0;marginBottom=0;" vertex="1" parent="1">
          <mxGeometry x="720" y="-710" width="337" height="37.2" as="geometry" />
        </mxCell>
        <mxCell id="ELCax2u4NC0bbe4ilLgf-209" style="line;strokeWidth=1;fillColor=none;align=left;verticalAlign=middle;spacingTop=-1;spacingLeft=3;spacingRight=3;rotatable=0;labelPosition=right;points=[];portConstraint=eastwest;strokeColor=inherit;" vertex="1" parent="ELCax2u4NC0bbe4ilLgf-208">
          <mxGeometry y="29.2" width="337" height="8" as="geometry" />
        </mxCell>
        <mxCell id="ELCax2u4NC0bbe4ilLgf-210" value="" style="curved=1;startArrow=block;startSize=16;startFill=0;endArrow=none;entryX=0.501;entryY=1.104;rounded=0;entryDx=0;entryDy=0;entryPerimeter=0;exitX=0;exitY=0;exitDx=0;exitDy=0;" edge="1" parent="1" source="ELCax2u4NC0bbe4ilLgf-193">
          <mxGeometry relative="1" as="geometry">
            <Array as="points" />
            <mxPoint x="1470" y="-480" as="sourcePoint" />
            <mxPoint x="879.9970000000005" y="-672.8039999999999" as="targetPoint" />
          </mxGeometry>
        </mxCell>
        <mxCell id="ELCax2u4NC0bbe4ilLgf-211" value="" style="endArrow=classic;html=1;rounded=0;exitX=-0.002;exitY=0.71;exitDx=0;exitDy=0;entryX=0;entryY=0.5;entryDx=0;entryDy=0;exitPerimeter=0;" edge="1" parent="1" source="V4egGfP_zGuZwLftv9b--646" target="ELCax2u4NC0bbe4ilLgf-208">
          <mxGeometry width="50" height="50" relative="1" as="geometry">
            <mxPoint x="-490" y="1290" as="sourcePoint" />
            <mxPoint x="-440" y="1240" as="targetPoint" />
            <Array as="points">
              <mxPoint x="-980" y="1502" />
              <mxPoint x="-980" y="-691" />
              <mxPoint x="-810" y="-691" />
            </Array>
          </mxGeometry>
        </mxCell>
        <mxCell id="wH1AgLoXfQPMmCpiyfL2-16" value="" style="endArrow=open;endFill=1;endSize=12;html=1;rounded=0;exitX=-0.005;exitY=0.152;exitDx=0;exitDy=0;exitPerimeter=0;entryX=0;entryY=0.381;entryDx=0;entryDy=0;entryPerimeter=0;" edge="1" parent="1" source="zbynbGas7J4wnV4V9AK0-7" target="ELCax2u4NC0bbe4ilLgf-173">
          <mxGeometry width="160" relative="1" as="geometry">
            <mxPoint x="1080" y="1370" as="sourcePoint" />
            <mxPoint x="1070" y="-250" as="targetPoint" />
            <Array as="points">
              <mxPoint x="1000" y="1326" />
              <mxPoint x="1000" y="530" />
              <mxPoint x="1000" y="330" />
              <mxPoint x="1000" y="140" />
              <mxPoint x="1000" y="40" />
              <mxPoint x="1000" y="-60" />
              <mxPoint x="1000" y="-150" />
              <mxPoint x="1000" y="-210" />
              <mxPoint x="1000" y="-230" />
              <mxPoint x="1000" y="-250" />
            </Array>
          </mxGeometry>
        </mxCell>
        <mxCell id="wH1AgLoXfQPMmCpiyfL2-17" value="SeccionExistenteExcepcion" style="swimlane;fontStyle=1;align=center;verticalAlign=top;childLayout=stackLayout;horizontal=1;startSize=29.2;horizontalStack=0;resizeParent=1;resizeParentMax=0;resizeLast=0;collapsible=0;marginBottom=0;" vertex="1" parent="1">
          <mxGeometry x="1910" y="-360" width="334" height="37.2" as="geometry" />
        </mxCell>
        <mxCell id="wH1AgLoXfQPMmCpiyfL2-18" style="line;strokeWidth=1;fillColor=none;align=left;verticalAlign=middle;spacingTop=-1;spacingLeft=3;spacingRight=3;rotatable=0;labelPosition=right;points=[];portConstraint=eastwest;strokeColor=inherit;" vertex="1" parent="wH1AgLoXfQPMmCpiyfL2-17">
          <mxGeometry y="29.2" width="334" height="8" as="geometry" />
        </mxCell>
        <mxCell id="wH1AgLoXfQPMmCpiyfL2-19" value="" style="curved=1;startArrow=block;startSize=16;startFill=0;endArrow=none;exitX=1;exitY=1;rounded=0;exitDx=0;exitDy=0;entryX=0;entryY=0.5;entryDx=0;entryDy=0;" edge="1" parent="1" source="ELCax2u4NC0bbe4ilLgf-193" target="wH1AgLoXfQPMmCpiyfL2-17">
          <mxGeometry relative="1" as="geometry">
            <Array as="points" />
            <mxPoint x="1554" y="-447" as="sourcePoint" />
            <mxPoint x="1910" y="-447" as="targetPoint" />
          </mxGeometry>
        </mxCell>
        <mxCell id="aLwTp6GQoyXuJVONA23o-1" value="" style="endArrow=open;endFill=1;endSize=12;html=1;rounded=0;entryX=0.5;entryY=1;entryDx=0;entryDy=0;exitX=0;exitY=0;exitDx=0;exitDy=0;" edge="1" parent="1" source="V4egGfP_zGuZwLftv9b--660" target="ELCax2u4NC0bbe4ilLgf-172">
          <mxGeometry width="160" relative="1" as="geometry">
            <mxPoint x="1890" y="1600" as="sourcePoint" />
            <mxPoint x="1410" y="379" as="targetPoint" />
            <Array as="points">
              <mxPoint x="1770" y="1606" />
              <mxPoint x="1770" y="1190" />
              <mxPoint x="1770" y="740" />
              <mxPoint x="1770" y="-170" />
              <mxPoint x="1295" y="-170" />
            </Array>
          </mxGeometry>
        </mxCell>
        <mxCell id="wH1AgLoXfQPMmCpiyfL2-22" value="" style="endArrow=open;endFill=1;endSize=12;html=1;rounded=0;entryX=1;entryY=0.5;entryDx=0;entryDy=0;" edge="1" parent="1" target="wH1AgLoXfQPMmCpiyfL2-17">
          <mxGeometry width="160" relative="1" as="geometry">
            <mxPoint x="2219" y="1752" as="sourcePoint" />
            <mxPoint x="2379" y="1752" as="targetPoint" />
            <Array as="points">
              <mxPoint x="2730" y="1752" />
              <mxPoint x="2730" y="650" />
              <mxPoint x="2730" y="150" />
              <mxPoint x="2730" y="-341" />
            </Array>
          </mxGeometry>
        </mxCell>
        <mxCell id="ELCax2u4NC0bbe4ilLgf-212" value="TipoFuncionarioNoEncontradoExcepcion" style="swimlane;fontStyle=1;align=center;verticalAlign=top;childLayout=stackLayout;horizontal=1;startSize=29.2;horizontalStack=0;resizeParent=1;resizeParentMax=0;resizeLast=0;collapsible=0;marginBottom=0;" vertex="1" parent="1">
          <mxGeometry x="380" y="-600" width="425" height="37.2" as="geometry" />
        </mxCell>
        <mxCell id="ELCax2u4NC0bbe4ilLgf-213" style="line;strokeWidth=1;fillColor=none;align=left;verticalAlign=middle;spacingTop=-1;spacingLeft=3;spacingRight=3;rotatable=0;labelPosition=right;points=[];portConstraint=eastwest;strokeColor=inherit;" vertex="1" parent="ELCax2u4NC0bbe4ilLgf-212">
          <mxGeometry y="29.2" width="425" height="8" as="geometry" />
        </mxCell>
        <mxCell id="ELCax2u4NC0bbe4ilLgf-214" value="" style="curved=1;startArrow=block;startSize=16;startFill=0;endArrow=none;entryX=1;entryY=0.5;rounded=0;entryDx=0;entryDy=0;exitX=0;exitY=0.5;exitDx=0;exitDy=0;" edge="1" parent="1" source="ELCax2u4NC0bbe4ilLgf-193" target="ELCax2u4NC0bbe4ilLgf-212">
          <mxGeometry relative="1" as="geometry">
            <Array as="points" />
            <mxPoint x="1450" y="-500" as="sourcePoint" />
            <mxPoint x="889.9970000000005" y="-662.8039999999999" as="targetPoint" />
          </mxGeometry>
        </mxCell>
        <mxCell id="wH1AgLoXfQPMmCpiyfL2-23" value="" style="endArrow=open;endFill=1;endSize=12;html=1;rounded=0;entryX=0;entryY=0.5;entryDx=0;entryDy=0;" edge="1" parent="1" target="ELCax2u4NC0bbe4ilLgf-212">
          <mxGeometry width="160" relative="1" as="geometry">
            <mxPoint x="-546" y="827" as="sourcePoint" />
            <mxPoint x="-600" y="890" as="targetPoint" />
            <Array as="points">
              <mxPoint x="-200" y="827" />
              <mxPoint x="-200" y="130" />
              <mxPoint x="-200" y="-230" />
              <mxPoint x="-200" y="-580" />
            </Array>
          </mxGeometry>
        </mxCell>
        <mxCell id="ELCax2u4NC0bbe4ilLgf-220" value="PINInvalidoExcepcion" style="swimlane;fontStyle=1;align=center;verticalAlign=top;childLayout=stackLayout;horizontal=1;startSize=29.2;horizontalStack=0;resizeParent=1;resizeParentMax=0;resizeLast=0;collapsible=0;marginBottom=0;" vertex="1" parent="1">
          <mxGeometry x="380" y="-513.21" width="425" height="37.2" as="geometry" />
        </mxCell>
        <mxCell id="ELCax2u4NC0bbe4ilLgf-221" style="line;strokeWidth=1;fillColor=none;align=left;verticalAlign=middle;spacingTop=-1;spacingLeft=3;spacingRight=3;rotatable=0;labelPosition=right;points=[];portConstraint=eastwest;strokeColor=inherit;" vertex="1" parent="ELCax2u4NC0bbe4ilLgf-220">
          <mxGeometry y="29.2" width="425" height="8" as="geometry" />
        </mxCell>
        <mxCell id="ELCax2u4NC0bbe4ilLgf-225" value="" style="curved=1;startArrow=block;startSize=16;startFill=0;endArrow=none;entryX=1;entryY=0.5;rounded=0;entryDx=0;entryDy=0;exitX=0;exitY=1;exitDx=0;exitDy=0;" edge="1" parent="1" source="ELCax2u4NC0bbe4ilLgf-193" target="ELCax2u4NC0bbe4ilLgf-220">
          <mxGeometry relative="1" as="geometry">
            <Array as="points" />
            <mxPoint x="1440" y="-470" as="sourcePoint" />
            <mxPoint x="815" y="-571" as="targetPoint" />
          </mxGeometry>
        </mxCell>
        <mxCell id="wH1AgLoXfQPMmCpiyfL2-24" value="" style="endArrow=open;endFill=1;endSize=12;html=1;rounded=0;entryX=0;entryY=0.75;entryDx=0;entryDy=0;" edge="1" parent="1" target="ELCax2u4NC0bbe4ilLgf-220">
          <mxGeometry width="160" relative="1" as="geometry">
            <mxPoint x="-550" y="807.5" as="sourcePoint" />
            <mxPoint x="108" y="-90" as="targetPoint" />
            <Array as="points">
              <mxPoint x="-240" y="808" />
              <mxPoint x="-240" y="180" />
              <mxPoint x="-240" y="-150" />
              <mxPoint x="-240" y="-482" />
            </Array>
          </mxGeometry>
        </mxCell>
      </root>
    </mxGraphModel>
  </diagram>
</mxfile>
